<?xml version="1.0" standalone="no"?>
<!DOCTYPE svg PUBLIC "-//W3C//DTD SVG 1.1//EN" "http://www.w3.org/Graphics/SVG/1.1/DTD/svg11.dtd" >
<svg xmlns="http://www.w3.org/2000/svg">
<metadata>Generated by IcoMoon</metadata>
<defs>
<font id="icomoon" horiz-adv-x="1024">
<font-face units-per-em="1024" ascent="960" descent="-64" />
<missing-glyph horiz-adv-x="1024" />
<glyph unicode="&#x20;" horiz-adv-x="512" d="" />
<glyph unicode="&#xe900;" glyph-name="plus1" d="M448 960h128v-1024h-128v1024zM1024 512v-128h-1024v128h1024z" />
<glyph unicode="&#xe901;" glyph-name="logo-02" horiz-adv-x="996" d="M829.791 423.466c-23.145 29.931-58.075 50.489-104.783 61.664 59.481 30.338 85.62 81.834 78.444 154.491-2.399 26.347-9.681 49.182-21.861 68.537-12.191 19.359-28.639 34.923-49.409 46.696-20.754 11.788-43.326 20.762-67.664 26.949-24.344 6.187-52.293 10.679-83.83 13.47v150.889h-92.199v-146.697c-15.966 0-40.315-0.399-73.044-1.198v147.894h-92.215v-150.889c-13.176-0.401-32.533-0.604-58.079-0.604l-126.935 0.604v-98.199h66.458c30.338 0 48.101-13.575 53.29-40.715v-171.849c3.997 0 7.187-0.205 9.584-0.603h-9.584v-240.693c-3.19-20.355-14.764-30.54-34.726-30.54h-66.454l-18.565-109.576h119.754c7.586 0 18.556-0.102 32.933-0.282 14.366-0.199 25.141-0.302 32.328-0.302v-152.681h92.229v150.885c16.76-0.407 41.109-0.603 73.042-0.603v-150.282h92.204v152.681c32.74 1.594 61.778 4.572 87.115 8.978 25.348 4.406 49.603 11.281 72.751 20.668 23.145 9.374 42.502 21.058 58.066 35.029 15.573 13.96 28.437 31.73 38.632 53.29 10.163 21.559 16.658 46.509 19.442 74.857 5.214 55.47-3.775 98.185-26.926 128.13zM417.238 690.505c2.795 0 10.677 0.101 23.652 0.302 12.98 0.206 23.754 0.403 32.333 0.604 8.585 0.197 20.162-0.302 34.736-1.499 14.571-1.197 26.843-2.797 36.82-4.79s20.964-5.288 32.929-9.877c11.986-4.589 21.559-10.179 28.736-16.763 7.19-6.587 13.276-14.973 18.258-25.152 4.995-10.179 7.492-21.853 7.492-35.024 0-11.178-1.793-21.36-5.383-30.546-3.581-9.18-8.984-16.866-16.16-23.054-7.179-6.188-14.577-11.582-22.163-16.168-7.578-4.586-17.267-8.283-29.037-11.073-11.77-2.795-22.049-4.993-30.825-6.587-8.784-1.597-19.758-2.698-32.934-3.293s-23.159-1.002-29.94-1.201c-6.789-0.196-16.068-0.196-27.847 0-11.782 0.199-18.659 0.304-20.66 0.304v183.818l-0.006-0.002zM669.026 282.754c-3.8-9.186-8.682-17.176-14.665-23.964-5.995-6.775-13.882-12.77-23.657-17.95-9.772-5.197-19.262-9.382-28.437-12.576-9.186-3.205-20.267-5.986-33.227-8.388-12.991-2.397-24.36-4.082-34.149-5.087-9.775-1.002-21.446-1.796-35.024-2.399-13.567-0.587-24.15-0.891-31.733-0.891-7.586 0-17.167 0.108-28.744 0.304-11.582 0.185-18.961 0.285-22.157 0.285v202.392c3.191 0 12.673 0.194 28.442 0.601 15.775 0.404 28.639 0.589 38.621 0.589 9.977 0 23.754-0.589 41.325-1.796 17.552-1.187 32.322-2.978 44.309-5.372 11.97-2.399 25.035-6.086 39.216-11.081 14.164-4.987 25.647-11.073 34.434-18.258 8.781-7.198 16.163-16.365 22.146-27.546 6-11.173 8.995-23.951 8.995-38.325-0.003-11.187-1.896-21.349-5.696-30.537z" />
<glyph unicode="&#xe902;" glyph-name="logo-03" horiz-adv-x="996" d="M498.162-50.162c274.673 0 498.162 223.47 498.162 498.162s-223.489 498.162-498.162 498.162c-274.672 0-498.162-223.469-498.162-498.162s223.49-498.162 498.162-498.162zM498.162 863.135c228.903 0 415.135-186.232 415.135-415.135s-186.232-415.135-415.135-415.135c-228.902 0-415.135 186.232-415.135 415.135s186.233 415.135 415.135 415.135zM310.662 281.951h353.554v83.027h-227.635l35.574 83.027h150.547v83.027h-114.954l44.92 104.819-76.318 32.715-58.935-137.534h-126.821v-83.027h91.227l-71.16-166.054z" />
<glyph unicode="&#xe903;" glyph-name="logo-04" horiz-adv-x="996" d="M784.799 698.254l-71.94-292.791-72.211 292.791h-211.683v-108.148c-25.387 94.631-115.070 118.37-198.164 119.689-101.222 1.321-207.391-42.532-211.297-176.399h140.079c0 40.404 30.993 63.524 65.942 62.976 42.863 0.332 62.647-17.97 63.636-46.492-1.481-24.728-16.104-41.962-63.307-41.962h-47.111v-97.18h42.78c24.243 0 58.079-13.187 59.416-47.799 1.63-41.226-27.055-59.362-62.335-59.694-62.977 2.314-73.199 50.732-73.199 92.326h-145.405c0.656-28.030-6.266-210.692 221.573-209.372 109.137-0.991 185.304 44.843 207.721 108.145v-96.94h143.429v315.876l77.486-315.874h125.296l77.813 315.544v-315.874h143.006v501.175h-211.525zM429.36 406.124c-17.804 36.93-42.928 53.107-57.109 58.194 29.679 13.19 45.239 31.094 57.109 66.768v-124.961z" />
<glyph unicode="&#xe904;" glyph-name="uniE904" horiz-adv-x="996" d="M61.784 358.419c29.099 83.5 194.754 118.69 436.403 89.592l46.811 172.062c-239.118 30.363-413.712-3.794-442.811-112.598l-4.778-17.627-3.897-58.791-31.729-72.638z" />
<glyph unicode="&#xe905;" glyph-name="uniE905" horiz-adv-x="996" d="M934.502 537.42c-29.098-83.503-194.69-118.518-436.34-89.417l-46.811-172.062c239.118-30.366 413.71 3.794 442.811 112.598l3.061 11.3 2.184 54.906 35.096 82.676z" />
<glyph unicode="&#xe906;" glyph-name="uniE906" horiz-adv-x="996" d="M214.757 718.748c352.985-25.304 713.557-199.898 679.397-330.212l31.631 116.396c10.121 36.69 15.183 55.67 15.183 70.85 0 132.844-347.925 294.786-679.399 315.029l-46.811-172.063z" />
<glyph unicode="&#xe907;" glyph-name="uniE907" horiz-adv-x="996" d="M781.561 177.249c-352.984 25.304-713.559 199.899-679.398 330.21l-31.63-116.393c-10.121-36.692-15.182-55.67-15.182-70.85 0-132.843 347.922-294.787 679.399-315.029l46.811 172.062z" />
<glyph unicode="&#xe908;" glyph-name="logo-06" horiz-adv-x="1882" d="M1881.927 434.926c0 133.828-64.822 239.425-188.718 239.425-124.416 0-199.697-105.597-199.697-238.379 0-157.356 88.872-236.812 216.424-236.812 62.209 0 109.258 14.115 144.805 33.98v104.556c-35.549-17.776-76.321-28.755-128.077-28.755-50.707 0-95.667 17.776-101.415 79.462h255.629c0.003 6.794 1.049 33.98 1.049 46.523zM1623.682 484.59c0 59.074 36.072 83.644 69.004 83.644 31.891 0 65.871-24.57 65.871-83.644h-134.875zM1291.726 674.351c-51.23 0-84.167-24.045-102.464-40.777l-6.794 32.411h-115.009v-609.543l130.69 27.706 0.523 147.94c18.819-13.592 46.526-32.931 92.528-32.931 93.574 0 178.785 75.278 178.785 240.994-0.518 151.605-86.774 234.2-178.259 234.2zM1260.359 314.169c-30.845 0-49.138 10.979-61.686 24.57l-0.523 193.946c13.594 15.161 32.411 25.617 62.209 25.617 47.572 0 80.506-53.323 80.506-121.806 0.003-70.050-32.411-122.326-80.506-122.326zM887.675 705.193l131.213 28.228v106.12l-131.213-27.706v-106.642zM1018.888 665.459h-131.213v-457.415h131.213v457.415zM747.011 626.779l-8.364 38.685h-112.917v-457.418h130.69v309.998c30.842 40.254 83.118 32.934 99.325 27.186v120.234c-16.727 6.269-77.893 17.771-108.735-38.685zM485.644 778.905l-127.554-27.184-0.523-418.73c0-77.37 58.028-134.352 135.395-134.352 42.87 0 74.232 7.843 91.485 17.253v106.12c-16.727-6.797-99.322-30.842-99.322 46.523v185.582h99.322v111.348h-99.322l0.52 113.441zM132.26 532.685c0 20.389 16.727 28.229 44.434 28.229 39.729 0 89.914-12.022 129.648-33.46v122.852c-43.391 17.247-86.258 24.045-129.648 24.045-106.12 0-176.694-55.412-176.694-147.94 0-144.282 198.652-121.28 198.652-183.49 0-24.047-20.91-31.888-50.186-31.888-43.39 0-98.802 17.773-142.714 41.821v-124.419c48.616-20.909 97.758-29.796 142.714-29.796 108.733 0 183.49 53.846 183.49 147.417-0.523 155.784-199.695 128.077-199.695 186.628z" />
<glyph unicode="&#xe909;" glyph-name="logo-01" horiz-adv-x="996" d="M192.216 438.682l305.863 35.743 81.66 202.777-81.66 268.961-305.863-507.481zM498.079 577.785l-305.863-139.106 305.863-180.703 81.66 168.478-81.66 151.331zM498.054 650.553v-392.571l305.739 180.703-305.739 211.868zM498.054 577.788l305.739-139.106-305.739 507.481v-368.374zM498.079 200.031l-305.863 180.697 305.863-430.891 59.124 143.144-59.124 107.050zM498.054 200.031v-250.194l305.98 430.891-305.98-180.697z" />
<glyph unicode="&#xe90a;" glyph-name="arrow-top" horiz-adv-x="1536" d="M722.801 69.642l-618.667 628.273c-25.067 25.068-25.067 65.601 0 90.668l37.867 37.865c25.067 25.068 65.601 25.068 90.666 0l535.467-545.6 535.467 545.068c25.068 25.066 65.601 25.066 90.667 0l37.868-37.867c25.066-25.066 25.066-65.599 0-90.667l-618.667-628.27c-25.068-24.525-65.601-24.525-90.667 0.529z" />
<glyph unicode="&#xe90b;" glyph-name="arrow-left1" horiz-adv-x="683" d="M76.541 450.36l439.792-433.068c17.547-17.545 45.921-17.545 63.468 0l26.506 26.508c17.547 17.545 17.547 45.923 0 63.468l-381.921 374.826 381.548 374.826c17.546 17.547 17.546 45.921 0 63.467l-26.507 26.507c-17.546 17.546-45.92 17.546-63.467 0l-439.789-433.067c-17.167-17.547-17.168-45.921 0.37-63.467z" />
<glyph unicode="&#xe90c;" glyph-name="arrow-right1" horiz-adv-x="683" d="M606.126 450.36l-439.792-433.068c-17.547-17.545-45.921-17.545-63.468 0l-26.506 26.508c-17.547 17.545-17.547 45.923 0 63.468l381.921 374.826-381.548 374.826c-17.546 17.547-17.546 45.921 0 63.467l26.507 26.507c17.546 17.546 45.92 17.546 63.467 0l439.789-433.067c17.168-17.547 17.168-45.921-0.37-63.467z" />
<glyph unicode="&#xe90d;" glyph-name="uniE90D" horiz-adv-x="1138" d="M802.222 48c0-18.665-14.663-33.334-33.334-33.334h-399.997c-18.671 0-33.334 14.669-33.334 33.334 0 18.668 14.663 33.334 33.334 33.334h399.997c18.671 0 33.334-14.666 33.334-33.334z" />
<glyph unicode="&#xe90e;" glyph-name="uniE90E" horiz-adv-x="1138" d="M802.222 48c0-18.665-14.663-33.334-33.334-33.334h-266.667v66.668h266.667c18.671 0 33.334-14.666 33.334-33.334z" />
<glyph unicode="&#xe90f;" glyph-name="uniE90F" horiz-adv-x="1138" d="M802.222 848c0-18.664-14.663-33.333-33.334-33.333h-399.997c-18.671 0-33.334 14.669-33.334 33.333 0 18.669 14.663 33.333 33.334 33.333h399.997c18.671 0 33.334-14.665 33.334-33.333z" />
<glyph unicode="&#xe910;" glyph-name="uniE910" horiz-adv-x="1138" d="M1005.744 474.303c-12.24 0-23.993 6.738-29.852 18.423l-140.365 280.729c-8.235 16.471-1.562 36.491 14.911 44.727 16.438 8.202 36.491 1.595 44.726-14.909l140.365-280.729c8.235-16.472 1.562-36.491-14.911-44.726-4.784-2.375-9.862-3.516-14.874-3.516z" />
<glyph unicode="&#xe911;" glyph-name="uniE911" horiz-adv-x="1138" d="M865.3 74.3c-5.012 0-10.092 1.141-14.876 3.516-11.685 5.828-18.423 17.613-18.423 29.818 0 5.015 1.141 10.123 3.516 14.911l140.365 280.727c8.269 16.472 28.223 23.080 44.726 14.911 11.688-5.828 18.423-17.613 18.423-29.818 0-5.015-1.138-10.126-3.516-14.911l-140.362-280.727c-5.862-11.688-17.613-18.426-29.852-18.426z" />
<glyph unicode="&#xe912;" glyph-name="uniE912" horiz-adv-x="1138" d="M131.979 474.303c-5.013 0-10.091 1.141-14.875 3.516-16.471 8.235-23.145 28.254-14.909 44.726l140.365 280.729c8.269 16.504 28.222 23.111 44.727 14.909 16.472-8.236 23.145-28.256 14.908-44.727l-140.363-280.729c-5.86-11.685-17.611-18.423-29.851-18.423z" />
<glyph unicode="&#xe913;" glyph-name="uniE913" horiz-adv-x="1138" d="M272.41 74.3c-12.24 0-23.991 6.738-29.851 18.426l-140.365 280.727c-8.236 16.472-1.562 36.491 14.909 44.729 16.438 8.169 36.491 1.562 44.727-14.911l140.363-280.727c8.238-16.472 1.564-36.491-14.908-44.729-4.785-2.375-9.863-3.516-14.876-3.516z" />
<glyph unicode="&#xe914;" glyph-name="uniE914" horiz-adv-x="1138" d="M975.952 444.481c-3.612 0-7.259 0.586-10.84 1.82l-214.062 73.7c-17.417 5.988-26.661 24.966-20.671 42.351 5.988 17.414 25 26.627 42.351 20.671l214.062-73.697c17.417-5.99 26.661-24.969 20.671-42.351-4.753-13.838-17.675-22.494-31.511-22.494z" />
<glyph unicode="&#xe915;" glyph-name="uniE915" horiz-adv-x="1138" d="M718.413 612.679c-6.835 0-13.77 2.116-19.726 6.48-14.811 10.903-18.002 31.77-7.097 46.615l100.978 137.304c10.903 14.811 31.704 17.969 46.615 7.096 14.811-10.904 18.002-31.771 7.094-46.616l-100.975-137.305c-6.545-8.883-16.634-13.574-26.889-13.574z" />
<glyph unicode="&#xe916;" glyph-name="uniE916" horiz-adv-x="1138" d="M674.21 600.004c-6.002-10.004-16.666-15.337-27.335-15.337-6.665 0-12.666 2.002-18.665 6.002l-289.334 192.668c-15.332 9.998-19.331 30.664-8.667 46 9.998 15.331 30.666 19.331 46 9.331l289.331-192.663c15.334-10.004 19.334-30.672 8.67-46z" />
<glyph unicode="&#xe917;" glyph-name="uniE917" horiz-adv-x="1138" d="M542.197 334.655c-6.966 0-13.963 2.179-19.954 6.673-14.746 11.034-17.741 31.932-6.673 46.646l119.987 160.026c11.065 14.748 31.966 17.675 46.646 6.673 14.746-11.034 17.741-31.932 6.673-46.646l-119.987-160.026c-6.542-8.755-16.535-13.346-26.692-13.346z" />
<glyph unicode="&#xe918;" glyph-name="uniE918" horiz-adv-x="1138" d="M439.054 302.424c-3.482 0-7.029 0.555-10.544 1.727l-273.503 91.145c-17.449 5.794-26.889 24.676-21.062 42.158 5.793 17.414 24.544 26.985 42.156 21.060l273.502-91.145c17.451-5.794 26.889-24.676 21.063-42.158-4.656-13.963-17.644-22.787-31.61-22.787z" />
<glyph unicode="&#xe919;" glyph-name="uniE919" horiz-adv-x="1138" d="M783.423 56.297c-7.29 0-14.649 2.375-20.799 7.29l-229.231 183.398c-14.356 11.526-16.7 32.486-5.211 46.876 11.557 14.322 32.489 16.731 46.876 5.208l229.231-183.398c14.356-11.523 16.7-32.486 5.208-46.874-6.61-8.203-16.276-12.501-26.075-12.501z" />
<glyph unicode="&#xe91a;" glyph-name="uniE91A" horiz-adv-x="1138" d="M342.195 67.988c-6.966 0-13.963 2.179-19.951 6.673-14.748 11.034-17.741 31.932-6.676 46.646l119.987 160.026c11.102 14.748 31.935 17.675 46.649 6.673 14.746-11.034 17.738-31.932 6.673-46.646l-119.987-160.026c-6.542-8.755-16.535-13.346-26.695-13.346z" />
<glyph unicode="&#xe91b;" glyph-name="uniE91B" horiz-adv-x="1138" d="M478.754 343.768c-13.477 0-26.206 8.235-31.218 21.615l-153.19 408.465c-6.446 17.253 2.276 36.458 19.496 42.935 17.186 6.445 36.457-2.247 42.937-19.498l153.19-408.464c6.446-17.254-2.278-36.457-19.499-42.937-3.871-1.434-7.811-2.116-11.716-2.116z" />
<glyph unicode="&#xe91c;" glyph-name="uniE91C" horiz-adv-x="1138" d="M566.858 297.509c-14.942 0-28.516 10.089-32.29 25.259-4.491 17.838 6.38 35.937 24.252 40.397l403.971 100.978c17.806 4.523 35.937-6.349 40.397-24.252 4.491-17.838-6.38-35.94-24.249-40.397l-403.974-100.978c-2.702-0.683-5.436-1.007-8.107-1.007z" />
<glyph unicode="&#xe91d;" glyph-name="uniE91D" horiz-adv-x="1138" d="M768.887 814.667h-266.667v66.667h266.667c18.671 0 33.334-14.665 33.334-33.333 0-18.664-14.663-33.333-33.334-33.333z" />
<glyph unicode="&#xe91e;" glyph-name="uniE91E" horiz-adv-x="1138" d="M674.222 600.001c-6.002-10.004-16.666-15.337-27.335-15.337-6.665 0-12.666 2.002-18.665 6.002l-126 84.002v79.999l163.334-108.668c15.332-10.001 19.331-30.669 8.667-45.998z" />
<glyph unicode="&#xe91f;" glyph-name="uniE91F" horiz-adv-x="1138" d="M502.221 414.666c-55.333 0-99.999-44.663-99.999-99.999 0-55.33 44.666-99.999 99.999-99.999 55.336 0 100.002 44.669 100.002 99.999 0 55.336-44.666 99.999-100.002 99.999z" />
<glyph unicode="&#xe920;" glyph-name="uniE920" horiz-adv-x="1138" d="M602.223 314.667c0-55.33-44.666-99.999-100.002-99.999v199.999c55.336 0 100.002-44.663 100.002-99.999z" />
<glyph unicode="&#xe921;" glyph-name="uniE921" horiz-adv-x="1138" d="M1035.554 348.001c-55.14 0-99.999 44.857-99.999 99.999s44.86 99.999 99.999 99.999c55.142 0 102.224-44.857 102.224-99.999s-47.081-99.999-102.224-99.999z" />
<glyph unicode="&#xe922;" glyph-name="uniE922" horiz-adv-x="1138" d="M835.556 748c-55.142 0-99.999 44.858-99.999 100s44.857 100 99.999 100c55.142 0 99.999-44.858 99.999-100s-44.857-100-99.999-100z" />
<glyph unicode="&#xe923;" glyph-name="uniE923" horiz-adv-x="1138" d="M702.222 481.334c-55.142 0-99.999 44.857-99.999 99.999s44.857 100 99.999 100c55.142 0 99.999-44.857 99.999-100s-44.857-99.999-99.999-99.999z" />
<glyph unicode="&#xe924;" glyph-name="uniE924" horiz-adv-x="1138" d="M835.556-51.999c-55.142 0-99.999 44.857-99.999 99.999s44.857 99.999 99.999 99.999c55.142 0 99.999-44.857 99.999-99.999s-44.857-99.999-99.999-99.999z" />
<glyph unicode="&#xe925;" glyph-name="uniE925" horiz-adv-x="1138" d="M102.222 348.001c-55.142 0-102.222 44.857-102.222 99.999s47.080 99.999 102.222 99.999c55.142 0 100-44.857 100-99.999s-44.858-99.999-100-99.999z" />
<glyph unicode="&#xe926;" glyph-name="uniE926" horiz-adv-x="1138" d="M302.222 748c-55.142 0-100 44.858-100 100s44.858 100 100 100c55.142 0 99.999-44.858 99.999-100s-44.857-100-99.999-100z" />
<glyph unicode="&#xe927;" glyph-name="uniE927" horiz-adv-x="1138" d="M302.222-51.999c-55.142 0-100 44.857-100 99.999s44.858 99.999 100 99.999c55.142 0 99.999-44.857 99.999-99.999s-44.857-99.999-99.999-99.999z" />
<glyph unicode="&#xe928;" glyph-name="collection" d="M543.989 721.777h-231.115v24.887c0 109.967 89.146 199.112 199.113 199.112h298.667c109.963 0 199.11-89.145 199.11-199.112v-298.667c0-109.963-89.148-199.11-199.11-199.11h-24.89v231.113c0 133.527-108.247 241.777-241.775 241.777zM213.319-49.779h298.668c109.963 0 199.11 89.146 199.11 199.11v298.667c0 109.967-89.148 199.113-199.11 199.113h-298.668c-109.966 0-199.111-89.146-199.111-199.113v-298.667c0-109.965 89.145-199.11 199.111-199.11zM536.572 426.315c15.516-13.574 17.088-37.165 3.509-52.681l-142.857-163.266c-30.697-35.083-83.573-39.776-119.977-10.656l-87.25 69.798c-16.101 12.883-18.711 36.378-5.831 52.476 12.88 16.102 36.373 18.711 52.475 5.828l87.251-69.798c5.199-4.162 12.753-3.488 17.139 1.523l142.859 163.266c13.574 15.516 37.161 17.090 52.681 3.509z" />
<glyph unicode="&#xe929;" glyph-name="community" horiz-adv-x="896" d="M896 540.073c0 60.277-26.861 117.365-73.169 155.494l-248.887 204.944c-73.293 60.354-178.594 60.354-251.889 0l-248.888-204.944c-46.304-38.129-73.166-95.217-73.166-155.494v-389.088c0-110.88 89.145-200.764 199.111-200.764h497.779c109.963 0 199.11 89.884 199.11 200.764v389.088zM609.777 186.665v-112c0-27.492-22.285-49.777-49.777-49.777h-224c-27.492 0-49.777 22.285-49.777 49.777v112c0 89.346 72.431 161.779 161.777 161.779s161.777-72.433 161.777-161.779z" />
<glyph unicode="&#xe92a;" d="M594 946c3.052-3.072 7.052-5.072 12-6-0.912-1.595-2.248-2.262-4-2-33.288 2.993-66.62 5.66-100 8-36.060-3.479-72.060-7.479-108-12 4 2.667 8 5.333 12 8 62.3 14.138 124.968 15.471 188 4z" />
<glyph unicode="&#xe92b;" glyph-name="facebook1" horiz-adv-x="576" d="M165.1 381.47c-3.84 0-88.32 0-126.72 0-20.48 0-26.88 7.68-26.88 26.88 0 51.2 0 103.68 0 154.88 0 20.48 7.68 26.88 26.88 26.88h126.72c0 3.84 0 78.080 0 112.64 0 51.2 8.96 99.84 34.56 144.64 26.88 46.080 65.28 76.8 113.92 94.72 32 11.52 64 16.64 98.56 16.64h125.44c17.92 0 25.6-7.68 25.6-25.6v-145.92c0-17.92-7.68-25.6-25.6-25.6-34.56 0-69.12 0-103.68-1.28-34.56 0-52.48-16.64-52.48-52.48-1.28-38.4 0-75.52 0-115.2h148.48c20.48 0 28.16-7.68 28.16-28.16v-154.88c0-20.48-6.4-26.88-28.16-26.88-46.080 0-144.64 0-148.48 0v-417.278c0-21.76-6.4-29.44-29.44-29.44-53.76 0-106.24 0-160 0-19.2 0-26.88 7.68-26.88 26.88 0 134.4 0 414.718 0 418.558z" />
<glyph unicode="&#xe92c;" glyph-name="image1" horiz-adv-x="995" d="M259.028 219.502c-66.355 0-125.378 42.487-146.811 105.735l-1.449 4.766c-5.055 16.753-7.172 30.837-7.172 44.93v282.604l-100.553-335.653c-12.932-49.369 16.537-100.554 65.983-114.191l640.922-171.646c8.002-2.071 16.001-3.066 23.877-3.066 41.279 0 79 27.399 89.571 67.774l37.341 118.746h-601.708zM259.028 219.502c-66.355 0-125.378 42.487-146.811 105.735l-1.449 4.766c-5.055 16.753-7.172 30.837-7.172 44.93v282.604l-100.553-335.653c-12.932-49.369 16.537-100.554 65.983-114.191l640.922-171.646c8.002-2.071 16.001-3.066 23.877-3.066 41.279 0 79 27.399 89.571 67.774l37.341 118.746h-601.708zM373.072 654.713c45.717 0 82.891 37.182 82.891 82.901s-37.174 82.9-82.891 82.9c-45.72 0-82.901-37.181-82.901-82.9s37.181-82.901 82.901-82.901zM373.072 654.713c45.717 0 82.891 37.182 82.891 82.901s-37.174 82.9-82.891 82.9c-45.72 0-82.901-37.181-82.901-82.9s37.181-82.901 82.901-82.901zM891.061 944.857h-621.728c-57.111 0-103.619-46.508-103.619-103.627v-455.929c0-57.119 46.508-103.629 103.619-103.629h621.728c57.119 0 103.629 46.51 103.629 103.629v455.929c0 57.118-46.51 103.627-103.629 103.627zM269.333 861.957h621.728c11.445 0 20.729-9.282 20.729-20.727v-294.245l-130.934 152.785c-13.888 16.287-33.994 24.992-55.586 25.486-21.469-0.122-41.612-9.654-55.372-26.154l-153.945-184.773-50.15 50.030c-28.347 28.347-74.483 28.347-102.792 0l-114.397-114.357v391.229c0 11.445 9.282 20.727 20.719 20.727zM891.061 944.857h-621.728c-57.111 0-103.619-46.508-103.619-103.627v-455.929c0-57.119 46.508-103.629 103.619-103.629h621.728c57.119 0 103.629 46.51 103.629 103.629v455.929c0 57.118-46.51 103.627-103.629 103.627zM269.333 861.957h621.728c11.445 0 20.729-9.282 20.729-20.727v-294.245l-130.934 152.785c-13.888 16.287-33.994 24.992-55.586 25.486-21.469-0.122-41.612-9.654-55.372-26.154l-153.945-184.773-50.15 50.030c-28.347 28.347-74.483 28.347-102.792 0l-114.397-114.357v391.229c0 11.445 9.282 20.727 20.719 20.727z" />
<glyph unicode="&#xe92d;" glyph-name="linkedin1" d="M1024.044-64v375.041c0 184.32-39.68 325.12-254.72 325.12-103.679 0-172.798-56.32-200.958-110.080h-2.56v93.44h-203.521v-683.521h212.481v339.201c0 89.6 16.64 175.36 126.72 175.36 108.798 0 110.078-101.12 110.078-180.48v-332.801h212.48v-1.28zM16.571 619.535h212.48v-683.521h-212.48v683.521zM122.88 960c-67.84 0-122.88-55.040-122.88-122.88s55.040-124.16 122.88-124.16c67.84 0 122.88 56.32 122.88 124.16s-55.040 122.88-122.88 122.88z" />
<glyph unicode="&#xe92e;" glyph-name="uniE92E" horiz-adv-x="973" d="M75.585 779.858v-58.684h-46.534c-16.394 0-25.97-18.487-16.512-31.879l102.128-144.589c8.054-11.405 24.97-11.405 33.024 0l102.128 144.589c9.458 13.391-0.118 31.879-16.512 31.879h-46.534v58.684c0 38.022 30.934 68.956 68.958 68.956s68.954-30.934 68.954-68.956v-334.584h111.186v334.584c0 99.33-80.812 180.142-180.142 180.142s-180.144-80.812-180.144-180.142z" />
<glyph unicode="&#xe92f;" glyph-name="uniE92F" horiz-adv-x="973" d="M435.853 779.862v-334.581h-61.233v334.581c0 88.884-64.717 162.954-149.52 177.52 9.952 1.732 20.17 2.618 30.618 2.618 99.331 0 180.135-80.808 180.135-180.138z" />
<glyph unicode="&#xe930;" glyph-name="uniE930" horiz-adv-x="973" d="M773.194-63.997h-573.52c-20.396 0-37.592 15.206-40.084 35.451l-50.89 413.391h755.466l-50.888-413.391c-2.493-20.244-19.689-35.451-40.084-35.451z" />
<glyph unicode="&#xe931;" glyph-name="uniE931" horiz-adv-x="973" d="M108.7 384.837l9.026-73.3h288.121c14.904 0 28.89-7.992 35.766-21.212 8.412-16.182 25.326-27.231 44.82-27.231 19.5 0 36.411 11.049 44.823 27.231 6.876 13.22 20.859 21.212 35.763 21.212h148.869c33.272 0 59.036-29.13 54.971-62.154l-34.212-277.921c-2.504-20.255-19.686-35.459-40.084-35.459h76.634c20.398 0 37.581 15.204 40.084 35.459l50.888 413.376h-755.469z" />
<glyph unicode="&#xe932;" glyph-name="uniE932" horiz-adv-x="973" d="M419.090 30.139c-19.889-1.39-37.138 13.604-38.531 33.492l-10.67 152.594c-1.39 19.886 13.604 37.138 33.495 38.528 19.886 1.39 37.138-13.604 38.528-33.492l10.67-152.591c1.39-19.889-13.604-37.138-33.492-38.531z" />
<glyph unicode="&#xe933;" glyph-name="uniE933" horiz-adv-x="973" d="M275.415 30.961c-19.743-2.775-37.997 10.98-40.771 30.723l-21.288 151.478c-2.774 19.743 10.98 37.998 30.724 40.771 19.744 2.775 37.999-10.98 40.772-30.723l21.289-151.478c2.772-19.74-10.982-37.998-30.725-40.771z" />
<glyph unicode="&#xe934;" glyph-name="uniE934" horiz-adv-x="973" d="M555.584 30.139c19.886-1.39 37.138 13.604 38.528 33.492l10.67 152.594c1.39 19.886-13.604 37.138-33.492 38.528s-37.138-13.604-38.531-33.492l-10.67-152.591c-1.388-19.889 13.606-37.138 33.495-38.531z" />
<glyph unicode="&#xe935;" glyph-name="uniE935" horiz-adv-x="973" d="M699.279 30.961c19.745-2.775 37.998 10.98 40.773 30.723l21.286 151.478c2.775 19.743-10.98 37.998-30.723 40.771-19.743 2.775-37.998-10.98-40.773-30.723l-21.286-151.478c-2.778-19.74 10.98-37.998 30.723-40.771z" />
<glyph unicode="&#xe936;" glyph-name="uniE936" horiz-adv-x="973" d="M877.581 362.010h-782.279c-28.774 0-52.102 23.324-52.102 52.101 0 28.774 23.326 52.101 52.102 52.101h782.279c28.774 0 52.104-23.324 52.104-52.101s-23.329-52.101-52.104-52.101z" />
<glyph unicode="&#xe937;" glyph-name="uniE937" horiz-adv-x="973" d="M929.664 414.113c0-14.397-5.837-27.4-15.265-36.831-9.411-9.431-22.454-15.265-36.833-15.265h-71.764c14.377 0 27.42 5.834 36.831 15.265 9.431 9.431 15.265 22.433 15.265 36.831 0 28.777-23.324 52.099-52.096 52.099h71.764c28.774 0 52.099-23.324 52.099-52.099z" />
<glyph unicode="&#xe938;" glyph-name="uniE938" horiz-adv-x="973" d="M897.088 676.838v-202.908h46.533c16.394 0 25.971-18.488 16.512-31.88l-102.126-144.589c-8.054-11.405-24.97-11.405-33.024 0l-102.129 144.589c-9.459 13.391 0.118 31.88 16.512 31.88h46.533v202.908c0 38.023-30.932 68.957-68.959 68.957-38.024 0-68.954-30.934-68.954-68.957v-210.624h-111.186v210.624c0 99.333 80.812 180.143 180.14 180.143 99.331 0 180.147-80.812 180.147-180.143z" />
<glyph unicode="&#xe939;" glyph-name="uniE939" horiz-adv-x="973" d="M960.084 442.048l-102.131-144.576c-8.056-11.415-24.952-11.415-33.009 0l-11.395 16.133 90.719 128.44c9.454 13.391-0.102 31.895-16.504 31.895h-25.94c-11.379 0-20.603 9.224-20.603 20.603v182.3c0 89.832-66.097 164.52-152.22 177.974 11.223 1.752 22.761 2.472 34.532 2.042 97.242-3.544 173.501-85.044 173.501-182.351v-200.566h46.543c16.381 0 25.964-18.504 16.507-31.895z" />
<glyph unicode="&#xe93a;" glyph-name="plan" horiz-adv-x="1243" d="M495.796 292.857l-19.359-272.304c27.698 0 39.694 11.9 54.080 26.192l129.86 124.101 269.079-197.054c49.349-27.502 84.122-13.019 97.434 45.4l176.625 827.63 0.051 0.048c15.653 72.952-26.383 101.479-74.467 83.583l-1038.195-397.48c-70.855-27.503-69.782-67.003-12.045-84.899l265.425-82.559 616.528 385.777c29.016 19.213 55.398 8.583 33.697-10.631l-498.713-447.805z" />
<glyph unicode="&#xe93b;" glyph-name="quality" horiz-adv-x="1170" d="M957.225 918.888l166.234-189.373c38.578-43.947 40.875-109.454 5.469-156.061l-447.922-589.651c-48.423-63.739-143.336-63.739-191.761 0l-447.922 589.651c-35.404 46.607-33.109 112.113 5.469 156.061l166.234 189.373c22.955 26.15 55.858 41.112 90.411 41.112h563.38c34.548 0 67.452-14.962 90.407-41.112z" />
<glyph unicode="&#xe93c;" glyph-name="resource" horiz-adv-x="1170" d="M243.794 846.222c0 62.838 50.94 113.778 113.777 113.778h455.112c62.839 0 113.779-50.94 113.779-113.778v-56.889h-682.668v56.889zM130.016 590.221c0 62.839 50.94 113.779 113.778 113.779h682.668c62.839 0 113.776-50.939 113.776-113.779v-56.888h-910.222v56.888zM16.238 334.221c0 62.839 50.94 113.779 113.778 113.779h910.222c62.839 0 113.779-50.939 113.779-113.779v-170.667c0-125.672-101.883-227.555-227.555-227.555h-682.668c-125.676 0-227.556 101.883-227.556 227.555v170.667zM428.683 277.333c0 23.564 19.102 42.667 42.667 42.667h227.555c23.564 0 42.667-19.102 42.667-42.667s-19.102-42.667-42.667-42.667h-227.555c-23.564 0-42.667 19.102-42.667 42.667z" />
<glyph unicode="&#xe93d;" d="M594 946c17.86-2.133 35.192-6.133 52-12 1.672-2.886 4.336-4.886 8-6-0.912-1.595-2.248-2.262-4-2-16.808 2.526-32.808 6.526-48 12 1.752-0.262 3.088 0.405 4 2-4.948 0.928-8.948 2.928-12 6z" />
<glyph unicode="&#xe93e;" glyph-name="trading" horiz-adv-x="995" d="M461.417 816.35c0 32.317-26.331 58.903-58.394 54.855-227.265-28.7-403.023-222.702-403.023-457.757 0-254.833 206.583-461.417 461.417-461.417 235.055 0 429.056 175.759 457.757 403.023 4.049 32.063-22.54 58.394-54.854 58.394h-344.389c-32.317 0-58.514 26.197-58.514 58.514v344.388zM461.417 816.35c0 32.317-26.331 58.903-58.394 54.855-227.265-28.7-403.023-222.702-403.023-457.757 0-254.833 206.583-461.417 461.417-461.417 235.055 0 429.056 175.759 457.757 403.023 4.049 32.063-22.54 58.394-54.854 58.394h-344.389c-32.317 0-58.514 26.197-58.514 58.514v344.388zM591.65 943.112c-32.060 4.049-58.391-22.538-58.391-54.855v-344.387c0-32.317 26.197-58.514 58.514-58.514h344.386c32.317 0 58.906 26.331 54.857 58.391-26.288 208.142-191.225 373.079-399.366 399.365zM591.65 943.112c-32.060 4.049-58.391-22.538-58.391-54.855v-344.387c0-32.317 26.197-58.514 58.514-58.514h344.386c32.317 0 58.906 26.331 54.857 58.391-26.288 208.142-191.225 373.079-399.366 399.365z" />
<glyph unicode="&#xe93f;" glyph-name="twiter" horiz-adv-x="1280" d="M1237.333 838.774c-44.425-20.559-91.767-34.185-141.124-40.802 50.773 31.98 89.532 82.235 107.75 142.809-47.343-29.775-99.61-50.806-155.307-62.543-44.954 50.491-109.013 81.762-178.901 81.762-135.597 0-244.76-116.106-244.76-258.442 0-20.48 1.644-40.172 5.675-58.919-203.616 10.476-383.786 113.428-504.821 270.257-21.131-38.676-33.525-82.944-33.525-130.599 0-89.482 43.68-168.803 108.789-214.725-39.35 0.788-77.952 12.839-110.656 31.823 0-0.788 0-1.812 0-2.836 0-125.558 84.896-229.849 196.224-253.873-19.936-5.751-41.664-8.508-64.213-8.508-15.68 0-31.509 0.945-46.368 4.412 31.734-102.321 121.782-177.546 228.854-179.988-83.328-68.763-189.131-110.201-303.669-110.201-20.086 0-39.35 0.947-58.614 3.55 108.49-73.813 237.067-115.951 375.723-115.951 450.688 0 697.088 393.846 697.088 735.232 0 11.422-0.375 22.449-0.896 33.398 48.606 36.392 89.446 81.841 122.752 134.144z" />
<glyph unicode="&#xe940;" glyph-name="users1" horiz-adv-x="1156" d="M578.065 557.872c105.396 0 190.837 85.441 190.837 190.838s-85.441 190.839-190.837 190.839c-105.396 0-190.837-85.442-190.837-190.839s85.441-190.838 190.837-190.838zM964.129 557.872c66.629 0 120.644 54.014 120.644 120.644s-54.014 120.645-120.644 120.645c-66.629 0-120.644-54.015-120.644-120.645s54.014-120.644 120.644-120.644zM192 557.872c66.63 0 120.645 54.014 120.645 120.644s-54.015 120.645-120.645 120.645c-66.63 0-120.645-54.015-120.645-120.645s54.015-120.644 120.645-120.644zM310.868 449.533c-47.49 38.909-90.499 33.759-145.41 33.759-82.126 0-148.942-66.421-148.942-148.044v-239.557c0-35.447 28.933-64.271 64.512-64.271 153.605 0 135.101-2.781 135.101 6.623 0 169.749-20.106 294.238 94.739 411.489zM630.275 482.413c-95.912 7.997-179.276-0.092-251.184-59.448-120.331-96.382-97.174-226.159-97.174-384.922 0-42.004 34.176-76.82 76.819-76.82 463.016 0 481.445-14.934 508.902 45.869 9.005 20.563 6.537 14.029 6.537 210.733 0 156.239-135.284 264.588-243.9 264.588zM990.7 483.295c-55.21 0-97.984 5.1-145.411-33.759 113.988-116.379 94.74-232.372 94.74-411.486 0-9.464-15.36-6.626 132.8-6.626 36.851 0 66.814 29.855 66.814 66.553v237.277c0 81.619-66.814 148.041-148.942 148.041z" />
<glyph unicode="&#xe941;" glyph-name="uniE941" horiz-adv-x="973" d="M246.4 268.001l-217.852 48.924-22.148 71.073 240 120.003 240-120.003-25.006-72.502-214.994-47.496z" />
<glyph unicode="&#xe942;" glyph-name="uniE942" horiz-adv-x="973" d="M246.4-64l-240 120v331.999l240-119.997 60.001-88.31v-157.471l-60.001-86.221z" />
<glyph unicode="&#xe943;" glyph-name="uniE943" horiz-adv-x="973" d="M486.4 56l-240-120v332.001l240 119.997v-331.999z" />
<glyph unicode="&#xe944;" glyph-name="uniE944" horiz-adv-x="973" d="M726.4 268.001l-217.851 48.924-22.149 71.073 240 120.003 240-120.003-25.006-72.502-214.994-47.496z" />
<glyph unicode="&#xe945;" glyph-name="uniE945" horiz-adv-x="973" d="M726.4-64l-240 120v331.999l240-119.997 60.001-88.31v-157.471l-60.001-86.221z" />
<glyph unicode="&#xe946;" glyph-name="uniE946" horiz-adv-x="973" d="M966.4 56l-240-120v332.001l240 119.997v-331.999z" />
<glyph unicode="&#xe947;" glyph-name="uniE947" horiz-adv-x="973" d="M486.4 720l-217.851 48.926-22.149 71.074 240 120 240-120-25.006-72.502-214.994-47.498z" />
<glyph unicode="&#xe948;" glyph-name="uniE948" horiz-adv-x="973" d="M486.4 387.999l-240 120.003v331.999l240-120 60.001-86.308v-159.47l-60.001-86.223z" />
<glyph unicode="&#xe949;" glyph-name="uniE949" horiz-adv-x="973" d="M726.4 508.001l-240-120.003v332.001l240 120v-331.999z" />
<glyph unicode="&#xe94a;" glyph-name="youtobe" horiz-adv-x="1536" d="M1470.694 792.414c-7.586 63.295-67.234 123.99-129.647 132.121-380.578 47.287-765.414 47.287-1145.864 0-62.462-8.114-122.112-68.826-129.7-132.121-26.867-231.975-26.867-456.899 0-688.819 7.588-63.3 67.238-124.049 129.7-132.122 380.449-47.283 765.303-47.283 1145.864 0 62.413 8.064 122.061 68.821 129.647 132.122 26.871 231.9 26.871 456.844 0 688.819zM647.621 207.040v481.853l361.386-240.935-361.386-240.918z" />
<glyph unicode="&#xe94b;" d="M602 938c15.192-5.474 31.192-9.474 48-12 46.556-15.944 90.556-37.278 132-64 19.78-11.781 38.448-25.114 56-40 15.852-17.858 32.52-35.191 50-52 7-8.937 13-18.27 18-28 10.628-18.576 21.296-37.243 32-56-16.588-2.668-32.588-5.335-48-8-121.36 176.57-288.028 242.57-500 198-114.796-35.277-202.796-103.944-264-206 0.598 4.208-0.069 8.208-2 12-1.333-1.333-2.667-2.667-4-4-12.517 2.519-25.184 5.186-38 8 5.151 8.955 9.151 18.288 12 28 4.274 9.875 9.608 19.208 16 28 18.628 23.956 38.628 46.623 60 68 64.213 60.109 138.88 101.442 224 124 35.94 4.521 71.94 8.521 108 12 33.38-2.34 66.712-5.007 100-8z" />
<glyph unicode="&#xe94c;" d="M646 934c47.644-13.818 92.976-33.152 136-58 3.524-2.833 6.188-6.166 8-10-3.968 0.686-6.632-0.647-8-4-41.444 26.722-85.444 48.056-132 64 1.752-0.262 3.088 0.405 4 2-3.664 1.114-6.328 3.114-8 6z" />
<glyph unicode="&#xe94d;" d="M890 678c3.884-7.933 7.884-15.933 12-24-2.668 0-4-1.333-4-4-14.668 21.333-29.332 42.667-44 64-7.488 12.328-16.82 22.994-28 32-25.748 28.418-55.080 52.418-88 72-12.276 9.578-25.612 17.578-40 24-117.14 49.277-235.808 52.61-356 10-16.886-7.764-32.886-16.43-48-26-38.048-20.709-71.382-47.376-100-80-5.333-2.667-9.333-6.667-12-12-40.572-45.089-69.905-97.089-88-156-3.353 1.367-4.686 4.034-4 8 6.574 30.41 18.574 58.41 36 84 61.204 102.056 149.204 170.723 264 206 211.972 44.57 378.64-21.43 500-198z" />
<glyph unicode="&#xe94e;" d="M698 842c-3.832-5.846-8.496-11.18-14-16-1.98-7.891-2.648-15.891-2-24-2.644 4.87-5.312 10.203-8 16-2.688-5.797-5.356-11.13-8-16 1.336 31.289-13.332 42.622-44 34-10.5-8.785-14.5-20.118-12-34-3.208 5.806-5.208 12.473-6 20-2.512-13.814-7.18-15.148-14-4 0 6.667 0 13.333 0 20-17.332 0-34.668 0-52 0 4.436 3.16 9.768 5.16 16 6-14.496-0.053-26.496 5.28-36 16-36.184 6.988-72.184 5.654-108-4-20.010-10.611-40.010-16.611-60-18-7.867-30.387-10.534-62.387-8-96 5.333 0 10.667 0 16 0-1.34 19.11-0.007 35.11 4 48 0-17.333 0-34.667 0-52-8 0-16 0-24 0 0 26.667 0 53.333 0 80 1.196 8.416-0.138 16.416-4 24-11.601-9.805-24.935-15.139-40-16 15.114 9.57 31.114 18.236 48 26 120.192 42.61 238.86 39.277 356-10z" />
<glyph unicode="&#xe94f;" d="M518 754c-20.688 1.27-40.688-1.397-60-8-3.968 29.927-5.3 60.594-4 92 17.384 0.663 34.716-0.004 52-2 17.592-12.88 20.256-28.214 8-46 8.752-11.179 10.084-23.179 4-36z" />
<glyph unicode="&#xe950;" d="M538 838c17.332 0 34.668 0 52 0 0-6.667 0-13.333 0-20-10.668 0-21.332 0-32 0 0-5.333 0-10.667 0-16 30.716-2.071 42.048-18.071 34-48-4.156-4.84-8.824-8.84-14-12-15.292 3.344-29.956 7.344-44 12-0.12 3.989 1.88 6.656 6 8 9.812-3.972 19.812-4.638 30-2 6.56 11.103 3.892 19.103-8 24-7.892 1.982-15.892 2.648-24 2 0 17.333 0 34.667 0 52z" />
<glyph unicode="&#xe951;" d="M666 802c-2.332-14.332-2.332-28.999 0-44-10.808-20.297-26.808-24.964-48-14-2 2-4 4-6 6-0.7 17.77-1.368 35.103-2 52-2.5 13.882 1.5 25.215 12 34 30.668 8.622 45.336-2.711 44-34z" />
<glyph unicode="&#xe952;" d="M538 838c0-17.333 0-34.667 0-52 8.108 0.648 16.108-0.018 24-2 11.892-4.897 14.56-12.897 8-24-10.188-2.638-20.188-1.972-30 2-4.12-1.344-6.12-4.011-6-8-5.332 0-10.668 0-16 0 6.084 12.821 4.752 24.821-4 36 12.256 17.786 9.592 33.12-8 46-17.284 1.996-34.616 2.663-52 2-1.3-31.406 0.032-62.073 4-92 0-1.333 0-2.667 0-4-8.26-0.069-16.26-1.402-24-4-1.332 0-2.668 0-4 0 1.324 33.44-0.008 66.773-4 100-14.668-12-28-25.333-40-40-14.937 10.924-26.937 24.258-36 40 19.99 1.389 39.99 7.389 60 18 35.816 9.654 71.816 10.988 108 4 9.504-10.72 21.504-16.053 36-16-6.232-0.84-11.564-2.84-16-6z" />
<glyph unicode="&#xe953;" d="M698 842c14.388-6.422 27.724-14.422 40-24 0.76-14.127-1.908-27.461-8-40-6.372-11.424-11.708-23.424-16-36-6.18-3.808-12.848-5.141-20-4 3.204 14.939 7.204 29.606 12 44-12.848 0.85-20.848 7.516-24 20-0.648 8.109 0.020 16.109 2 24 5.504 4.82 10.168 10.154 14 16z" />
<glyph unicode="&#xe954;" d="M350 838c9.063-15.742 21.063-29.076 36-40 12 14.667 25.332 28 40 40 3.992-33.227 5.324-66.56 4-100-6.668 0-13.332 0-20 0 0.664 17.384-0.004 34.718-2 52-6.736-7.405-14.068-14.072-22-20-8.077 6.759-16.077 13.426-24 20-4.007-12.89-5.34-28.89-4-48-5.333 0-10.667 0-16 0-2.534 33.613 0.133 65.613 8 96z" />
<glyph unicode="&#xe955;" d="M338 818c-3.285-12.566-5.285-25.899-6-40-2.542-5.865-5.875-11.199-10-16-26.698-5.302-53.364-5.302-80 0 0.641 6.797-0.026 13.464-2 20-14.668-10.005-27.335-22.005-38-36-2.667 0-5.333 0-8 0 28.618 32.624 61.952 59.291 100 80 15.065 0.861 28.399 6.195 40 16 3.862-7.584 5.196-15.584 4-24z" />
<glyph unicode="&#xe956;" d="M166 818c3.353-1.367 4.686-4.034 4-8-21.372-21.377-41.372-44.044-60-68-4.436-0.228-8.436-1.561-12-4 3.648 8.381 8.315 16.381 14 24 16.013 20.678 34.013 39.344 54 56z" />
<glyph unicode="&#xe957;" d="M826 842c49.924-35.926 88.592-81.259 116-136-2.668 0-4-1.333-4-4-9.148 14.488-19.812 27.821-32 40-5 9.73-11 19.063-18 28-17.48 16.809-34.148 34.142-50 52-2.3 7.645-6.3 14.312-12 20z" />
<glyph unicode="&#xe958;" d="M518 754c5.332 0 10.668 0 16 0 14.044-4.656 28.708-8.656 44-12 9.24-3.3 17.24-8.633 24-16-10.688 4.006-21.352 8.006-32 12-20.788 6.348-42.124 9.014-64 8-16.136-0.018-32.136-1.352-48-4 0 1.333 0 2.667 0 4 19.312 6.603 39.312 9.27 60 8z" />
<glyph unicode="&#xe959;" d="M458 742c-20.92-9.143-40.92-20.476-60-34-18.858-21.187-36.192-43.187-52-66 1.333 5.333 2.667 10.667 4 16 13.696 18.406 28.363 36.406 44 54 14.036 8.119 27.368 16.786 40 26 7.74 2.598 15.74 3.931 24 4z" />
<glyph unicode="&#xe95a;" d="M610 802c0.632-16.897 1.3-34.23 2-52 2-2 4-4 6-6 21.192-10.964 37.192-6.297 48 14 3.356-4.565 6.024-9.898 8-16-3.94-6.393-4.604-13.060-2-20 2.964 4.562 6.3 4.562 10 0 3.272-10.428 5.272-21.095 6-32 7.548-6.104 11.548-14.104 12-24 5.912 1.159 11.912 1.159 18 0-12.192-9.526-22.86-20.193-32-32-5.684 10.038-12.352 19.371-20 28-17.332 25.333-38.668 46.667-64 64-6.76 7.367-14.76 12.7-24 16 5.176 3.16 9.844 7.16 14 12 8.048 29.929-3.284 45.929-34 48 0 5.333 0 10.667 0 16 10.668 0 21.332 0 32 0 6.82-11.148 11.488-9.814 14 4 0.792-7.527 2.792-14.194 6-20z" />
<glyph unicode="&#xe95b;" d="M738 818c32.92-19.582 62.252-43.582 88-72-5.492 0.627-10.828-0.040-16-2-6.148-6.829-12.816-12.829-20-18-5.872 5.116-8.54 11.783-8 20-10.456-0.892-17.124 3.775-20 14-11.236 5.292-21.9 11.292-32 18 6.092 12.539 8.76 25.873 8 40z" />
<glyph unicode="&#xe95c;" d="M338 818c0-26.667 0-53.333 0-80 8 0 16 0 24 0 0 17.333 0 34.667 0 52 7.923-6.574 15.923-13.241 24-20 7.932 5.928 15.264 12.595 22 20 1.996-17.282 2.664-34.616 2-52 6.668 0 13.332 0 20 0 1.332 0 2.668 0 4 0-12.632-9.214-25.964-17.881-40-26-15.637-17.594-30.304-35.594-44-54-37.215 26.675-73.215 55.341-108 86-13.267 1.993-26.6 2.66-40 2 10.665 13.995 23.332 25.995 38 36 1.974-6.536 2.641-13.203 2-20 26.636-5.302 53.302-5.302 80 0 4.125 4.801 7.458 10.135 10 16 0.715 14.101 2.715 27.434 6 40z" />
<glyph unicode="&#xe95d;" d="M506 746c0-13.333 0-26.667 0-40-8.94 1.179-16.94-0.154-24-4-20.684-1.999-39.352-8.666-56-20-9.12-4.56-18.456-9.227-28-14-10-15.333-22.667-28-38-38-3.166-4.98-5.166-10.313-6-16-7.374 7.116-10.041 16.449-8 28 15.808 22.813 33.142 44.813 52 66 19.080 13.524 39.080 24.857 60 34 15.864 2.648 31.864 3.982 48 4z" />
<glyph unicode="&#xe95e;" d="M506 746c21.876 1.014 43.212-1.652 64-8-3.052-3.072-7.052-5.072-12-6 14.028-9.016 28.692-17.016 44-24 3.348-4.045 4.68-8.712 4-14-16.136 0.018-32.136 1.352-48 4-5.332 0-10.668 0-16 0-19.22 3.949-39.22 5.282-60 4 7.060 3.846 15.060 5.179 24 4 0 13.333 0 26.667 0 40z" />
<glyph unicode="&#xe95f;" d="M682 802c3.152-12.484 11.152-19.15 24-20-4.796-14.394-8.796-29.061-12-44 7.152-1.141 13.82 0.192 20 4 4.292 12.576 9.628 24.576 16 36 10.1-6.708 20.764-12.708 32-18 2.876-10.225 9.544-14.892 20-14-0.54-8.217 2.128-14.884 8-20-24-20-48-40-72-60-6.088 1.159-12.088 1.159-18 0-0.452 9.896-4.452 17.896-12 24-0.728 10.905-2.728 21.572-6 32-3.7 4.562-7.036 4.562-10 0-2.604 6.94-1.94 13.607 2 20-1.976 6.102-4.644 11.435-8 16-2.332 15.001-2.332 29.668 0 44 2.644 4.87 5.312 10.203 8 16 2.688-5.797 5.356-11.13 8-16z" />
<glyph unicode="&#xe960;" d="M182 734c44.169-38.844 89.502-76.177 136-112-5.652-47.896-4.985-95.896 2-144 4.822-17.508 16.155-26.84 34-28-0.949-5.164 0.384-9.164 4-12 1.18-7.692 4.513-14.36 10-20 1.982-7.892 2.648-15.892 2-24-25.333 18.668-50.667 37.332-76 56-3.049 7.048-8.382 11.048-16 12-11.9 11.292-25.234 20.624-40 28-31.039 24.228-64.372 45.564-100 64-4.782-1.384-4.782-3.384 0-6 29.618-16.104 57.618-34.104 84-54-27.402 12.040-53.402 26.704-78 44-2-2-4-4-6-6 3.558-10.932 6.224-23.6 8-38 0.834-11.816-1.832-22.484-8-32-0.083-8.408 1.25-17.072 4-26-8.145-7.276-8.812-14.612-2-22 1.333 4 2.667 8 4 12 1.992-11.928 2.658-23.928 2-36-7.659 1.136-14.325-0.196-20-4-2.573-39.060-5.239-77.728-8-116-7.452 17.020-14.118 34.352-20 52-17.189 60.036-23.855 121.368-20 184 4.755 23.736 10.088 47.736 16 72 18.095 58.911 47.428 110.911 88 156z" />
<glyph unicode="&#xe961;" d="M482 702c20.78 1.282 40.78-0.051 60-4 0.488-7.62-0.844-15.62-4-24-6.668 0-13.332 0-20 0 0 5.333 0 10.667 0 16 5.492-0.627 10.828 0.040 16 2-15.916 6.448-31.916 7.115-48 2-0.24 2.172-1.572 3.506-4 4-18.976-4.552-37.644-9.885-56-16 16.648 11.334 35.316 18.001 56 20z" />
<glyph unicode="&#xe962;" d="M518 690c-1.332 0-2.668 0-4 0-9.224-1.97-18.556-3.304-28-4-32.768-7.391-62.768-20.724-90-40-1.595 0.914-2.262 2.247-2 4 0.042 6.070 2.709 10.736 8 14 7.964 1.494 14.632 4.828 20 10 21.396 6.689 42.728 13.356 64 20 16.084 5.115 32.084 4.448 48-2-5.172-1.96-10.508-2.627-16-2z" />
<glyph unicode="&#xe963;" d="M542 698c5.332 0 10.668 0 16 0 24-7.569 46.664-18.236 68-32 9.332-12 20-22.667 32-32 1.332-2.667 2.668-5.333 4-8 0.524-2.956-0.144-5.622-2-8-4.264 12.252-12.932 18.252-26 18-8.26 7.916-16.928 15.25-26 22-4.044-3.346-8.712-4.68-14-4-15.588 5.64-31.588 9.64-48 12-2.668 2.667-5.332 5.333-8 8 3.156 8.38 4.488 16.38 4 24z" />
<glyph unicode="&#xe964;" d="M826 746c11.18-9.006 20.512-19.672 28-32-11.168-0.49-19.168-5.823-24-16-6.92-2.102-12.256-6.102-16-12-8-5.333-14.668-12-20-20-7.616-0.95-12.952-4.95-16-12-22.668-18.667-45.332-37.333-68-56-2.668 8-5.332 16-8 24-0.776 9.647-6.108 13.647-16 12 9.14 11.807 19.808 22.474 32 32 24 20 48 40 72 60 7.184 5.171 13.852 11.171 20 18 5.172 1.96 10.508 2.627 16 2z" />
<glyph unicode="&#xe965;" d="M110 742c-6.392-8.792-11.726-18.125-16-28-22.489-30.3-39.822-63.633-52-100-2.667 0-5.333 0-8 0 14.081 45.507 35.415 86.84 64 124 3.564 2.439 7.564 3.772 12 4z" />
<glyph unicode="&#xe966;" d="M486 686c0.54-8.217-2.128-14.884-8-20-9.144-0.38-17.144-3.046-24-8-17.788-3.707-35.124-9.040-52-16-4.7-0.876-8.7 0.457-12 4 0.494 2.427 1.828 3.76 4 4-0.262-1.753 0.405-3.086 2-4 27.232 19.276 57.232 32.609 90 40z" />
<glyph unicode="&#xe967;" d="M514 690c0.54-8.217-2.128-14.884-8-20-2.668 0-4-1.333-4-4-8 0-16 0-24 0 5.872 5.116 8.54 11.783 8 20 9.444 0.696 18.776 2.030 28 4z" />
<glyph unicode="&#xe968;" d="M514 690c1.332 0 2.668 0 4 0 0-5.333 0-10.667 0-16 6.668 0 13.332 0 20 0 2.668-2.667 5.332-5.333 8-8-13.44 0.464-26.772 1.797-40 4 5.872 5.116 8.54 11.783 8 20z" />
<glyph unicode="&#xe969;" d="M194 746c2.667 0 5.333 0 8 0 13.4 0.66 26.733-0.007 40-2 34.785-30.659 70.785-59.325 108-86-1.333-5.333-2.667-10.667-4-16-2.041-11.551 0.626-20.884 8-28-4.033-8.176-8.033-16.176-12-24-1.352 9.416-3.352 18.749-6 28-1.668 5.024-5.001 7.69-10 8-3.31 3.755-5.976 2.422-8-4-46.498 35.823-91.831 73.156-136 112 2.667 5.333 6.667 9.333 12 12z" />
<glyph unicode="&#xe96a;" d="M502 666c0 2.667 1.332 4 4 4 13.228-2.203 26.56-3.536 40-4 16.412-2.36 32.412-6.36 48-12 19.424-9.040 36.756-21.040 52-36-10.668 5.333-21.332 10.667-32 16-34.132 21.146-71.464 31.813-112 32z" />
<glyph unicode="&#xe96b;" d="M570 738c10.648-3.994 21.312-7.994 32-12 25.332-17.333 46.668-38.667 64-64 3.64-13.969 10.304-25.969 20-36-1.708-10.039-4.372-19.373-8-28-2.316 11.324-7.648 20.658-16 28-1.332 2.667-2.668 5.333-4 8-6.668 14.667-17.332 25.333-32 32-21.336 13.764-44 24.431-68 32 15.864-2.648 31.864-3.982 48-4 0.68 5.288-0.652 9.955-4 14-15.308 6.984-29.972 14.984-44 24 4.948 0.928 8.948 2.928 12 6z" />
<glyph unicode="&#xe96c;" d="M666 662c7.648-8.629 14.316-17.962 20-28 9.892 1.647 15.224-2.353 16-12-3.564 2.439-7.564 3.772-12 4-1.332 0-2.668 0-4 0-9.696 10.031-16.36 22.031-20 36z" />
<glyph unicode="&#xe96d;" d="M662 626c8.352-7.342 13.684-16.676 16-28 1.072-6.396-0.264-11.73-4-16 0.156 5.025-1.844 9.025-6 12-1.996-23.963-2.664-47.964-2-72-2.208-19.972-5.54-39.972-10-60-1.072 46.892 2.26 92.892 10 138-3.644 9.659-10.312 15.659-20 18-15.244 14.96-32.576 26.96-52 36 5.288-0.68 9.956 0.654 14 4 9.072-6.75 17.74-14.084 26-22 13.068 0.252 21.736-5.748 26-18 1.856 2.378 2.524 5.044 2 8z" />
<glyph unicode="&#xe96e;" d="M778 654c1.752 0.262 3.088-0.405 4-2-5.332-5.333-10.668-10.667-16-16 4.608-24.164 8.608-49.498 12-76-8.416-18.86-15.084-38.192-20-58 7.656-12.288 12.992-25.62 16-40 4-3.332 8-6.668 12-10-0.9-18.472-2.232-37.136-4-56 1.852-9.556 4.52-18.892 8-28-1.62-3.78-4.288-6.448-8-8 4.748-4.076 8.748-8.744 12-14-0.496-2.428-1.828-3.76-4-4-1.332 4-4 6.668-8 8-10.996 14.684-25.664 19.348-44 14-5.768-1.508-9.768-4.84-12-10-14.992-6.444-22.992-1.112-24 16-0.228 4.436-1.56 8.436-4 12 5.332 4 10.668 8 16 12 5.704 8.716 8.368 18.716 8 30-5.896 23.156-11.232 46.488-16 70 3.512 34.572 4.844 69.24 4 104 22.668 18.667 45.332 37.333 68 56z" />
<glyph unicode="&#xe96f;" d="M426 682c-1.332-2.667-2.668-5.333-4-8-5.368-5.172-12.036-8.506-20-10-5.291-3.264-7.958-7.93-8-14-2.172-0.24-3.506-1.573-4-4 3.3-3.543 7.3-4.876 12-4-1.332-2.667-2.667-5.333-4-8-7.618-0.95-12.951-4.95-16-12-2.956 0.524-5.622-0.143-8-2-10.335-13.608-21.002-26.274-32-38 0 2.667 0 5.333 0 8 3.967 7.824 7.967 15.824 12 24 0.834 5.687 2.834 11.020 6 16 15.333 10 28 22.667 38 38 9.544 4.773 18.88 9.44 28 14z" />
<glyph unicode="&#xe970;" d="M470 642c14.728 0.661 29.392-0.006 44-2 6.868-6.235 14.868-9.568 24-10 2.92-4.85 6.92-8.85 12-12-20.084-2.976-40.084-6.309-60-10-41.636-24.947-61.636-61.612-60-110-3.736 4.272-5.072 9.604-4 16-6.576 0.856-12.576-0.48-18-4-1.004-12.376 0.996-24.376 6-36-12.98 4.508-20.313 13.844-22 28-1.998 25.3-2.665 50.632-2 76 4.33 19.036 14.996 33.702 32 44 2.668 0 5.332 0 8 0-10.416-8.4-20.416-17.734-30-28-2.667-16-2.667-32 0-48 5.552-4.216 11.552-4.88 18-2 8.144 17.792 15.48 35.792 22 54 9.232 4.564 16.564 11.231 22 20-4.592 12.834-12.592 15.501-24 8 8.316 9.492 18.984 14.826 32 16z" />
<glyph unicode="&#xe971;" d="M902 654c25.936-53.058 41.936-109.060 48-168-2.668 0-5.332 0-8 0-3.668 27.592-8.336 55.592-14 84-8.94 27.19-18.94 53.856-30 80 0 2.667 1.332 4 4 4z" />
<glyph unicode="&#xe972;" d="M942 706c7.376-17.455 16.708-33.455 28-48 6.668-18.667 13.332-37.333 20-56-3.616-2.836-4.948-6.836-4-12-12.036 38.694-28.036 76.027-48 112 0 2.667 1.332 4 4 4z" />
<glyph unicode="&#xe973;" d="M326 626c4.999-0.31 8.332-2.976 10-8 2.648-9.251 4.648-18.584 6-28 0-2.667 0-5.333 0-8 2.833-35.98 3.5-71.98 2-108-0.997-4.496-2.997-8.496-6-12-6.584 5.116-11.251 11.78-14 20-8.646 48.376-7.98 96.375 2 144z" />
<glyph unicode="&#xe974;" d="M430 622c2.668 1.333 5.332 2.667 8 4 11.408 7.501 19.408 4.834 24-8-5.436-8.769-12.768-15.436-22-20-6.52-18.208-13.856-36.208-22-54-6.448-2.88-12.448-2.216-18 2-2.667 16-2.667 32 0 48 9.584 10.266 19.584 19.6 30 28z" />
<glyph unicode="&#xe975;" d="M814 686c10.56-17.264 21.224-34.597 32-52-0.836-2.344-2.172-4.344-4-6 13.844-36.545 19.18-74.544 16-114-5.492-0.628-10.828 0.040-16 2 5.552 3.556 4.888 5.556-2 6-5.76-2.592-11.76-3.924-18-4 8.412-17.556 14.412-36.22 18-56 12.952-7.876 26.284-14.544 40-20 0.848-13.032 2.848-25.696 6-38-9.496-8.156-17.496-17.488-24-28 4-1.332 8-2.668 12-4-4.948-0.928-8.948-2.928-12-6-1.332 0-2.668 0-4 0-3.112 2.624-5.776 5.956-8 10 9.924 22.936 10.588 46.268 2 70-11.664 10.068-22.996 20.736-34 32-2.984 4.944-4.316 10.28-4 16-4.208-0.596-8.208 0.068-12 2-0.004 13.204 0.664 27.204 2 42 7.332 11.332 13.332 10.668 18-2 29.816-16.908 39.816-8.244 30 26-8.612 16.614-21.944 27.281-40 32-2.552 4.434-4.552 9.101-6 14 8.432 16.939 5.1 32.272-10 46-1.932 3.792-2.596 7.792-2 12 5.332 8 12 14.667 20 20z" />
<glyph unicode="&#xe976;" d="M538 630c26.548-1.402 40.548-14.735 42-40-10.948-4.442-22.284-5.109-34-2 3.312 3.659 7.312 6.326 12 8-28.584-1.586-56.584-6.919-84-16-31.144-30.544-40.48-67.212-28-110-6.116-13.028-15.448-15.692-28-8-0.228 4.436-1.56 8.436-4 12 4.332-0.156 8.332-1.492 12-4 3.896 8.972 5.232 18.304 4 28-1.636 48.388 18.364 85.053 60 110 19.916 3.691 39.916 7.024 60 10-5.080 3.15-9.080 7.15-12 12z" />
<glyph unicode="&#xe977;" d="M470 642c32.716 7.006 64.716 3.673 96-10 7.296-2.64 12.628-7.307 16-14 3.832-5.846 8.496-11.18 14-16 2.668-6.667 2.668-13.333 0-20-1.332 1.333-2.668 2.667-4 4-4.668-4.667-9.332-9.333-14-14-27.92-5.764-55.92-11.098-84-16-8.076-1.8-15.408-5.132-22-10-21.024-29.516-25.692-61.516-14-96-4.756-3.716-10.088-5.048-16-4-9.528 3.404-17.528 8.736-24 16 12.552-7.692 21.884-5.028 28 8-12.48 42.788-3.144 79.456 28 110 27.416 9.081 55.416 14.414 84 16-4.688-1.674-8.688-4.341-12-8 11.716-3.109 23.052-2.442 34 2-1.452 25.265-15.452 38.598-42 40-9.132 0.432-17.132 3.765-24 10-14.608 1.994-29.272 2.661-44 2z" />
<glyph unicode="&#xe978;" d="M690 626c4.436-0.228 8.436-1.561 12-4 0.9-48.104-0.432-96.104-4-144-2.668 23.384-5.332 47.384-8 72-2.728-2.972-5.396-5.636-8-8 2.020 28.075 4.688 56.075 8 84z" />
<glyph unicode="&#xe979;" d="M582 618c12.072-3.414 19.404-11.414 22-24 1.296-19.208-0.704-37.876-6-56-4.952 3.648-10.288 4.316-16 2-10.7-17.808-20.7-35.808-30-54-22.176-16.836-46.844-22.168-74-16-6.2-7.332-10.2-15.996-12-26-8.848-3.156-16.848-2.488-24 2 5.912-1.048 11.244 0.284 16 4-11.692 34.484-7.024 66.484 14 96 6.592 4.868 13.924 8.2 22 10 28.080 4.902 56.080 10.236 84 16 4.668 4.667 9.332 9.333 14 14 1.332-1.333 2.668-2.667 4-4 2.668 6.667 2.668 13.333 0 20-5.504 4.82-10.168 10.154-14 16z" />
<glyph unicode="&#xe97a;" d="M478 666c8 0 16 0 24 0 40.536-0.187 77.868-10.854 112-32 10.668-5.333 21.332-10.667 32-16 1.132-3.156 3.132-5.823 6-8 5.724-58.444 1.056-115.776-14-172-1.332-4-4-6.668-8-8 0.948 5.164-0.384 9.164-4 12 5.332 14.668 10.668 29.332 16 44 8.228 23.096 9.56 47.096 4 72-2.848-19.448-6.848-38.112-12-56 0.664 21.376-0.004 42.708-2 64-1.656 1.83-3.656 3.163-6 4-4.12-23.148-10.12-45.816-18-68-5.16-9.168-11.828-17.168-20-24 0.536 6.756 2.536 13.424 6 20 2.204 13.228 3.536 26.56 4 40 5.296 18.124 7.296 36.792 6 56-2.596 12.586-9.928 20.586-22 24-3.372 6.693-8.704 11.36-16 14-31.284 13.673-63.284 17.006-96 10-13.016-1.174-23.684-6.508-32-16-2.668-1.333-5.332-2.667-8-4-2.668 0-5.332 0-8 0 8.416 6.395 16.416 13.728 24 22-3.792 1.931-7.792 2.598-12 2 7.044 3.251 13.712 7.251 20 12 6.856 4.954 14.856 7.62 24 8z" />
<glyph unicode="&#xe97b;" d="M686 626c1.332 0 2.668 0 4 0-3.312-27.925-5.98-55.925-8-84-1.628-22.644-2.96-45.312-4-68-2.224 35.632-3.556 71.632-4 108 3.736 4.27 5.072 9.604 4 16 3.628 8.627 6.292 17.961 8 28z" />
<glyph unicode="&#xe97c;" d="M854 714c14.668-21.333 29.332-42.667 44-64 11.060-26.144 21.060-52.81 30-80 5.664-28.408 10.332-56.408 14-84 0.764-30.804-0.568-61.472-4-92-6.408-43.948-19.072-86.612-38-128 0.872 22.528 1.536 45.196 2 68 3.072-3.052 5.072-7.052 6-12 1.624 41.736 7.624 82.404 18 122 0.368 23.488-4.964 45.488-16 66 4.088 3.416 7.42 7.416 10 12 2.668 13.332 2.668 26.668 0 40-16.668 14.018-28.668 31.351-36 52-13.188 9.182-25.188 19.848-36 32-2.612 13.226-9.276 23.893-20 32-2.844 7.467-0.844 13.467 6 18-0.912 1.595-2.248 2.262-4 2 4.832 10.177 12.832 15.51 24 16z" />
<glyph unicode="&#xe97d;" d="M326 626c-9.98-47.625-10.646-95.624-2-144 2.749-8.22 7.416-14.884 14-20 3.003 3.504 5.003 7.504 6 12 1.5 36.020 0.833 72.020-2 108 10.998 11.726 21.665 24.392 32 38 2.378 1.857 5.044 2.524 8 2-7.006-6.984-12.34-14.984-16-24-2.47-0.443-4.47-1.776-6-4-2.667-40-2.667-80 0-120 2-4 4-8 6-12-2.667-1.332-5.333-2.668-8-4 1.451-2.732 2.784-5.4 4-8-3.616-2.836-4.949-6.836-4-12-3.616 2.836-4.949 6.836-4 12-17.845 1.16-29.178 10.492-34 28-6.985 48.104-7.652 96.104-2 144 2.024 6.422 4.69 7.755 8 4z" />
<glyph unicode="&#xe97e;" d="M642 486c0.524 2.956-0.144 5.624-2 8-1.508-5.768-4.84-9.768-10-12 2.152 6.468 3.484 13.136 4 20 5.152 17.888 9.152 36.552 12 56 5.56-24.904 4.228-48.904-4-72z" />
<glyph unicode="&#xe97f;" d="M434 646c4.208 0.598 8.208-0.069 12-2-7.584-8.272-15.584-15.605-24-22-17.004-10.298-27.67-24.964-32-44-2.886-1.67-4.886-4.337-6-8-6.232-36.856-0.898-71.524 16-104 11.968-10.488 23.968-21.156 36-32 10.316 3.504 20.984 3.504 32 0 24.412 8.064 49.076 15.396 74 22 20.48 11.020 37.812 25.020 52 42-3.464-6.576-5.464-13.244-6-20 8.172 6.832 14.84 14.832 20 24 7.88 22.184 13.88 44.852 18 68 2.344-0.837 4.344-2.17 6-4 1.996-21.292 2.664-42.624 2-64-0.516-6.864-1.848-13.532-4-20-5.964-1.604-12.632-2.272-20-2-19.132-27.152-43.132-48.484-72-64 3.792-1.932 7.792-2.596 12-2-6.54-9.24-13.204-18.572-20-28-18.716-0.664-37.38 0.004-56 2 7.204 1.268 8.536 3.936 4 8-13.096 4.808-26.428 8.808-40 12-16 20-32 40-48 60-6.773 1.936-12.107-0.064-16-6-3.236 7.168-5.236 15.168-6 24-1.999 37.308-2.666 74.643-2 112 3.66 9.016 8.994 17.016 16 24 3.049 7.050 8.382 11.050 16 12 11.624 5.146 23.624 9.146 36 12z" />
<glyph unicode="&#xe980;" d="M698 478c0-2.668 0-5.332 0-8-4.42-4.4-9.752-7.068-16-8-3.616 2.836-4.948 6.836-4 12 1.040 22.688 2.372 45.356 4 68 2.604 2.364 5.272 5.028 8 8 2.668-24.616 5.332-48.616 8-72z" />
<glyph unicode="&#xe981;" d="M646 618c9.688-2.341 16.356-8.341 20-18-7.74-45.108-11.072-91.108-10-138 4.46 20.028 7.792 40.028 10 60 0-21.332 0-42.668 0-64 0-2.668-1.332-4-4-4 0.26 1.752-0.404 3.088-2 4-1.112-3.664-3.112-6.328-6-8 0.26 1.752-0.404 3.088-2 4-3.796-6.372-8.46-11.704-14-16 15.056 56.224 19.724 113.556 14 172-2.868 2.177-4.868 4.844-6 8z" />
<glyph unicode="&#xe982;" d="M674 582c0.444-36.368 1.776-72.368 4-108-0.948-5.164 0.384-9.164 4-12-4.272-3.736-9.604-5.072-16-4 0 21.332 0 42.668 0 64-0.664 24.036 0.004 48.037 2 72 4.156-2.975 6.156-6.975 6-12z" />
<glyph unicode="&#xe983;" d="M702 622c2.668-8 5.332-16 8-24 0.844-34.76-0.488-69.428-4-104 4.768-23.512 10.104-46.844 16-70 0.368-11.284-2.296-21.284-8-30 8.776 28.776 3.444 54.112-16 76 0 2.668 0 5.332 0 8 3.568 47.896 4.9 95.896 4 144z" />
<glyph unicode="&#xe984;" d="M222 494c5.333-1.332 10.667-2.668 16-4 10.5-13.26 23.834-22.596 40-28 7.618-0.952 12.951-4.952 16-12 2.912-8.94 8.245-16.272 16-22 20.232-14.076 40.232-28.076 60-42 2.166-12.608-1.834-22.608-12-30-35.11-14.048-69.777-28.048-104-42 0.515-6.864 1.848-13.532 4-20-17.439 1.264-26.773-8.068-28-28-3.353-1.368-4.686-4.032-4-8-3.321 40.636-5.321 81.968-6 124-8.938 5.92-16.272 4.588-22-4-9.805-31.18-18.472-63.18-26-96-7.926 31.708-14.592 63.708-20 96-7.156 6.916-15.822 9.584-26 8 5.675 3.804 12.341 5.136 20 4 0.658 12.072-0.008 24.072-2 36-1.333-4-2.667-8-4-12-6.812 7.388-6.145 14.724 2 22-2.75 8.928-4.083 17.592-4 26 6.168 9.516 8.834 20.184 8 32-1.776 14.4-4.442 27.068-8 38 2 2 4 4 6 6 24.598-17.296 50.598-31.96 78-44z" />
<glyph unicode="&#xe985;" d="M794 666c-0.596-4.208 0.068-8.208 2-12 15.1-13.728 18.432-29.061 10-46 1.448-4.899 3.448-9.566 6-14 18.056-4.719 31.388-15.386 40-32 9.816-34.244-0.184-42.908-30-26-4.668 12.668-10.668 13.332-18 2-1.336-14.796-2.004-28.796-2-42 3.792-1.932 7.792-2.596 12-2-0.316-5.72 1.016-11.056 4-16 11.004-11.264 22.336-21.932 34-32 8.588-23.732 7.924-47.064-2-70 2.224-4.044 4.888-7.376 8-10-35.076-15.508-50.412-42.172-46-80 2.832-3.524 6.168-6.188 10-8 2.232-5.16 6.232-8.492 12-10 9.24-1.988 18.572-2.652 28-2 0-4 0-8 0-12-13.636-1.004-26.968 0.332-40 4-9.176-4.5-9.176-9.836 0-16-4.436 0.228-8.436 1.56-12 4 1.632 22.144-7.7 36.812-28 44-3.62 4.808-3.62 10.144 0 16 11.824 9.776 14.492 21.776 8 36 2.172 0.24 3.504 1.572 4 4-3.252 5.256-7.252 9.924-12 14 3.712 1.552 6.38 4.22 8 8-3.48 9.108-6.148 18.444-8 28 1.768 18.864 3.1 37.528 4 56-4 3.332-8 6.668-12 10-3.008 14.38-8.344 27.712-16 40 4.916 19.808 11.584 39.14 20 58-3.392 26.502-7.392 51.836-12 76 5.332 5.333 10.668 10.667 16 16-0.912 1.595-2.248 2.262-4 2 3.048 7.050 8.384 11.050 16 12z" />
<glyph unicode="&#xe986;" d="M366 598c-0.666-37.357 0.001-74.692 2-112 0.764-8.832 2.764-16.832 6-24 0.68-5.288-0.654-9.956-4-14 33.588-45.464 78.92-68.796 136-70 0-2.668 0-5.332 0-8-12.072-0.66-24.072 0.008-36 2-10.984 7-22.984 11-36 12-10.956 4.104-20.288 10.104-28 18-12.948 7.044-24.282 16.376-34 28-1.464 7.808-4.798 14.472-10 20-1.216 2.6-2.549 5.268-4 8 2.667 1.332 5.333 2.668 8 4-2 4-4 8-6 12-2.667 40-2.667 80 0 120 1.53 2.224 3.53 3.557 6 4z" />
<glyph unicode="&#xe987;" d="M642 486c-5.332-14.668-10.668-29.332-16-44-7.156-5.508-15.156-9.508-24-12 8.304 7.228 13.636 16.564 16 28 6.032 6.724 10.032 14.724 12 24 5.16 2.232 8.492 6.232 10 12 1.856-2.376 2.524-5.044 2-8z" />
<glyph unicode="&#xe988;" d="M698 470c19.444-21.888 24.776-47.224 16-76-5.332-4-10.668-8-16-12-24.728-5.696-26.060-3.032-4 8 6.692 3.372 11.36 8.704 14 16 1.988 10.584 2.656 21.252 2 32-26.352 7.032-38.352-3.636-36-32-6.108 13.184-4.772 25.848 4 38-2.668 1.332-5.332 2.668-8 4 14.752 0.78 24.088 8.116 28 22z" />
<glyph unicode="&#xe989;" d="M390 578c-0.665-25.368 0.002-50.7 2-76 1.687-14.156 9.020-23.492 22-28 2.44-3.564 3.772-7.564 4-12 6.472-7.264 14.472-12.596 24-16 7.152-4.488 15.152-5.156 24-2 1.8 10.004 5.8 18.668 12 26 27.156-6.168 51.824-0.836 74 16 9.3 18.192 19.3 36.192 30 54 5.712 2.316 11.048 1.648 16-2-0.464-13.44-1.796-26.772-4-40-14.188-16.98-31.52-30.98-52-42-24.924-6.604-49.588-13.936-74-22-11.016 3.504-21.684 3.504-32 0-12.032 10.844-24.032 21.512-36 32-16.898 32.476-22.232 67.144-16 104 1.114 3.663 3.114 6.33 6 8z" />
<glyph unicode="&#xe98a;" d="M430 498c1.232-9.696-0.104-19.028-4-28-3.668 2.508-7.668 3.844-12 4-5.004 11.624-7.004 23.624-6 36 5.424 3.52 11.424 4.856 18 4-1.072-6.396 0.264-11.728 4-16z" />
<glyph unicode="&#xe98b;" d="M630 482c-1.968-9.276-5.968-17.276-12-24-18.964-19.54-41.632-34.204-68-44-4.208-0.596-8.208 0.068-12 2 28.868 15.516 52.868 36.848 72 64 7.368-0.272 14.036 0.396 20 2z" />
<glyph unicode="&#xe98c;" d="M694 390c-5.492-0.628-10.828 0.040-16 2 8.448 4.868 7.116 9.532-4 14-2.352 28.364 9.648 39.032 36 32 0.656-10.748-0.012-21.416-2-32-2.64-7.296-7.308-12.628-14-16z" />
<glyph unicode="&#xe98d;" d="M618 458c-2.364-11.436-7.696-20.772-16-28-7.864-3.764-15.864-7.764-24-12-7.724-9.216-17.056-16.552-28-22-4.952-2.76-4.952-4.76 0-6-5.676-3.804-12.34-5.136-20-4 6.796 9.428 13.46 18.76 20 28 26.368 9.796 49.036 24.46 68 44z" />
<glyph unicode="&#xe98e;" d="M362 450c5.202-5.528 8.536-12.192 10-20 9.718-11.624 21.052-20.956 34-28-2.956 0.524-5.624-0.144-8-2 4.784-2.616 4.784-4.616 0-6-6.973 6.152-14.973 10.152-24 12 1.216 2.6 2.549 5.268 4 8-6.74 8.284-13.407 16.284-20 24-0.949 5.164 0.384 9.164 4 12z" />
<glyph unicode="&#xe98f;" d="M654 450c-20.196-30.852-48.196-50.852-84-60 21.916 10.304 41.916 23.636 60 40 4 1.332 6.668 4 8 8 5.54 4.296 10.204 9.628 14 16 1.596-0.912 2.26-2.248 2-4z" />
<glyph unicode="&#xe990;" d="M698 470c-3.912-13.884-13.248-21.22-28-22 2.668-1.332 5.332-2.668 8-4-8.772-12.152-10.108-24.816-4-38 0.428-7.516-1.572-8.848-6-4-3.448 6.348-6.116 13.016-8 20-4.752-4.252-6.752-9.588-6-16-2.668-2.668-5.332-5.332-8-8 0.524 2.956-0.144 5.624-2 8-4.516-6.564-10.516-10.564-18-12 16.3 14.976 29.632 32.312 40 52-0.496 2.428-1.828 3.76-4 4 0 1.332 0 2.668 0 4 2.668 0 4 1.332 4 4 6.396-1.072 11.728 0.264 16 4 6.248 0.932 11.58 3.6 16 8z" />
<glyph unicode="&#xe991;" d="M626 442c3.616-2.836 4.948-6.836 4-12-18.084-16.364-38.084-29.696-60-40-6.668 0-13.332 0-20 0-4.952 1.24-4.952 3.24 0 6 10.944 5.448 20.276 12.784 28 22 8.136 4.236 16.136 8.236 24 12 8.844 2.492 16.844 6.492 24 12z" />
<glyph unicode="&#xe992;" d="M530 386c7.66-1.136 14.324 0.196 20 4 6.668 0 13.332 0 20 0-19.752-9.788-41.088-13.788-64-12-57.080 1.204-102.412 24.536-136 70 3.346 4.044 4.68 8.712 4 14 3.893 5.936 9.227 7.936 16 6 16-20 32-40 48-60 13.572-3.192 26.904-7.192 40-12 4.536-4.064 3.204-6.732-4-8 18.62-1.996 37.284-2.664 56-2z" />
<glyph unicode="&#xe993;" d="M674 406c11.116-4.468 12.448-9.132 4-14 5.172-1.96 10.508-2.628 16-2-22.060-11.032-20.728-13.696 4-8 2.44-3.564 3.772-7.564 4-12-13.476-5.612-26.808-8.28-40-8-9.72 13.52-12.388 28.188-8 44-0.752 6.412 1.248 11.748 6 16 1.884-6.984 4.552-13.652 8-20 4.428-4.848 6.428-3.516 6 4z" />
<glyph unicode="&#xe994;" d="M374 406c9.027-1.848 17.027-5.848 24-12 4.784 1.384 4.784 3.384 0 6 2.376 1.856 5.044 2.524 8 2 7.712-7.896 17.044-13.896 28-18 13.016-1 25.016-5 36-12 11.928-1.992 23.928-2.66 36-2 0-4 0-8 0-12-32.176-0.288-62.84 6.376-92 20-2.732-1.452-5.4-2.784-8-4-8.067 4.116-16.067 8.116-24 12-5.767 5.28-8.434 11.944-8 20z" />
<glyph unicode="&#xe995;" d="M830 698c1.752 0.262 3.088-0.405 4-2-6.844-4.533-8.844-10.533-6-18 10.724-8.107 17.388-18.774 20-32 10.812-12.152 22.812-22.818 36-32 7.332-20.649 19.332-37.982 36-52 2.668-13.332 2.668-26.668 0-40-2.58-4.584-5.912-8.584-10-12 11.036-20.512 16.368-42.512 16-66-10.376-39.596-16.376-80.264-18-122-0.928 4.948-2.928 8.948-6 12-0.26 14.428-6.924 23.76-20 28-5.676 3.804-12.34 5.136-20 4 3.052 3.072 7.052 5.072 12 6-4 1.332-8 2.668-12 4 6.504 10.512 14.504 19.844 24 28-3.152 12.304-5.152 24.968-6 38-13.716 5.456-27.048 12.124-40 20-3.588 19.78-9.588 38.444-18 56 6.24 0.076 12.24 1.408 18 4 6.888-0.444 7.552-2.444 2-6 5.172-1.96 10.508-2.628 16-2 3.18 39.456-2.156 77.455-16 114 1.828 1.656 3.164 3.656 4 6-10.776 17.403-21.44 34.736-32 52 3.744 5.898 9.080 9.898 16 12z" />
<glyph unicode="&#xe996;" d="M94 714c-2.849-9.712-6.849-19.045-12-28 12.816-2.814 25.483-5.481 38-8 1.333 1.333 2.667 2.667 4 4 1.931-3.792 2.598-7.792 2-12-17.426-25.59-29.426-53.59-36-84-10.272-22.466-15.606-46.468-16-72-8.41-68.632-1.744-135.296 20-200 1.333-5.332 2.667-10.668 4-16-3.237-6.052-3.904-12.72-2-20-13.642 3.172-27.642 5.172-42 6-8.86 22.752-16.194 46.084-22 70-1.857-2.376-2.524-5.044-2-8-4.973 17.144-8.973 34.476-12 52-9.415 74.12-1.415 146.12 24 216 12.178 36.367 29.511 69.7 52 100z" />
<glyph unicode="&#xe997;" d="M906 742c12.188-12.179 22.852-25.512 32-40 19.964-35.973 35.964-73.306 48-112 4.84-24.2 10.172-48.2 16-72 1.572-50.956-1.096-101.624-8-152-2.404-24.356-9.072-47.024-20-68 0.524 2.956-0.144 5.624-2 8-2.476-10.128-6.476-19.46-12-28-12.516 2.52-25.184 5.184-38 8 4.612 4.748 4.612 8.748 0 12 7.836 23.356 13.172 47.356 16 72 9.784 37.504 13.784 76.172 12 116-6.064 58.94-22.064 114.942-48 168-4.116 8.067-8.116 16.067-12 24 15.412 2.665 31.412 5.332 48 8-10.704 18.757-21.372 37.424-32 56z" />
<glyph unicode="&#xe998;" d="M382 386c7.933-3.884 15.933-7.884 24-12 0-1.332 0-2.668 0-4s0-2.668 0-4c-2.668 0-4-1.332-4-4-8.938 2.912-16.272 8.244-22 16-1.857-2.376-2.524-5.044-2-8-2.496 1.668-3.829 4.336-4 8 0.989 4.852 3.655 7.52 8 8z" />
<glyph unicode="&#xe999;" d="M662 454c0-1.332 0-2.668 0-4-36.78-55.064-88.78-81.728-156-80 0 2.668 0 5.332 0 8 22.912-1.788 44.248 2.212 64 12 35.804 9.148 63.804 29.148 84 60 2.888 1.672 4.888 4.336 6 8 1.596-0.912 2.26-2.248 2-4z" />
<glyph unicode="&#xe99a;" d="M406 366c0 1.332 0 2.668 0 4 25.376-11.564 52.044-18.232 80-20 6.668-2.668 13.332-5.332 20-8-19.288-0.592-37.952 2.076-56 8-15.252 3.752-29.916 9.084-44 16z" />
<glyph unicode="&#xe99b;" d="M662 450c2.172-0.24 3.504-1.572 4-4-10.368-19.688-23.7-37.024-40-52-7.436-9.4-16.768-16.736-28-22-29.392-12.412-60.060-18.412-92-18 0 1.332 0 2.668 0 4 0 4 0 8 0 12 67.22-1.728 119.22 24.936 156 80z" />
<glyph unicode="&#xe99c;" d="M646 398c1.236-13.2-0.764-26.532-6-40-8.48-4.42-17.148-4.42-26 0-25.16 9.508-33.16 1.508-24-24-27.876-10.056-55.876-12.724-84-8 0 2.668 0 5.332 0 8 20.408 1.448 40.408 4.78 60 10-19.868-0.644-39.868-1.312-60-2-6.668 2.668-13.332 5.332-20 8 7.66-1.136 14.324 0.196 20 4 31.94-0.412 62.608 5.588 92 18 11.232 5.264 20.564 12.6 28 22 7.484 1.436 13.484 5.436 18 12 1.856-2.376 2.524-5.044 2-8z" />
<glyph unicode="&#xe99d;" d="M506 358c0-1.332 0-2.668 0-4-5.676-3.804-12.34-5.136-20-4-27.956 1.768-54.624 8.436-80 20 0 1.332 0 2.668 0 4 2.6 1.216 5.268 2.548 8 4 29.16-13.624 59.824-20.288 92-20z" />
<glyph unicode="&#xe99e;" d="M358 438c6.593-7.716 13.26-15.716 20-24-1.451-2.732-2.784-5.4-4-8-0.434-8.056 2.233-14.72 8-20-4.345-0.48-7.011-3.148-8-8 0.171-3.664 1.504-6.332 4-8-0.343-3.984 0.99-7.316 4-10 15.628-11.036 31.628-21.036 48-30-21.16 5.58-40.492 14.912-58 28-5.204-0.556-8.538-3.22-10-8-35.128-14.496-71.128-26.496-108-36 34.223 13.952 68.89 27.952 104 42 10.166 7.392 14.166 17.392 12 30 0 2.668 0 5.332 0 8 0.648 8.108-0.018 16.108-2 24-5.487 5.64-8.82 12.308-10 20z" />
<glyph unicode="&#xe99f;" d="M402 362c14.080-13.816 30.080-17.816 48-12 18.048-5.924 36.712-8.592 56-8 0-2.668 0-5.332 0-8s0-5.332 0-8c-25.38 0.612-50.712 1.944-76 4-16.372 8.964-32.372 18.964-48 30-3.010 2.684-4.343 6.016-4 10-0.524 2.956 0.143 5.624 2 8 5.728-7.756 13.062-13.088 22-16z" />
<glyph unicode="&#xe9a0;" d="M702 370c1.008-17.112 9.008-22.444 24-16-12.76-15.316-15.428-32.648-8-52-6.344 6.324-10.344 14.324-12 24 1.332 2.668 2.668 5.332 4 8-6.716 5.128-14.052 9.128-22 12-1.332-9.332-2.668-18.668-4-28-5.668-2.312-9-6.312-10-12-16.656 11.788-13.988 17.124 8 16-2.636 11.82-3.968 23.82-4 36-16 2.668-22.668-4-20-20-4.208-0.596-8.208 0.068-12 2 5.6 7.424 10.932 14.756 16 22 13.192-0.28 26.524 2.388 40 8z" />
<glyph unicode="&#xe9a1;" d="M362 350c-0.443-2.468-1.776-4.468-4-6 4.688-1.676 8.688-4.34 12-8 23.638-12.064 47.64-23.396 72-34-5.288 0.68-9.956-0.652-14-4-2-31.972-2.664-63.972-2-96-3.892 9.792-5.224 20.46-4 32 0 22.668 0 45.332 0 68-5.164 0.948-9.164-0.384-12-4-3.304-17.928-5.304-36.596-6-56-1.532 2.224-3.532 3.556-6 4 1.27 11.924-2.73 21.26-12 28-2.439 3.564-3.772 7.564-4 12-2.193 10.336-8.86 14.336-20 12 0.641-6.796-0.026-13.464-2-20-1.114 3.664-3.114 6.328-6 8-7.983 7.332-17.316 9.332-28 6-9.063-5.704-15.73-13.040-20-22-2.47-0.444-4.47-1.776-6-4-0.722-12.78-2.722-24.78-6-36-1.333 0-2.667 0-4 0 0.663 17.384-0.004 34.716-2 52-7.394 10.164-17.394 14.164-30 12-2.152 6.468-3.485 13.136-4 20 36.872 9.504 72.872 21.504 108 36z" />
<glyph unicode="&#xe9a2;" d="M614 358c-6.668 0-13.332 0-20 0 2.668-16 5.332-32 8-48-2.668 1.332-5.332 2.668-8 4 1.136 7.66-0.196 14.324-4 20-9.16 25.508-1.16 33.508 24 24z" />
<glyph unicode="&#xe9a3;" d="M18 398c3.027-17.524 7.027-34.856 12-52 6.395-28.512 14.395-56.512 24-84-3.353-1.368-4.686-4.032-4-8-20.467 42.78-33.8 88.116-40 136 2.667 2.668 5.333 5.332 8 8z" />
<glyph unicode="&#xe9a4;" d="M718 302c6.516-6.784 5.184-10.784-4-12 0.328 7.008-3.004 11.008-10 12-7.064-2.932-14.396-4.268-22-4-4 1.332-6.668 4-8 8 1 5.688 4.332 9.688 10 12 1.332 9.332 2.668 18.668 4 28 7.948-2.872 15.284-6.872 22-12-1.332-2.668-2.668-5.332-4-8 1.656-9.676 5.656-17.676 12-24z" />
<glyph unicode="&#xe9a5;" d="M226 258c-1.010-25.492 0.323-50.824 4-76-0.989-4.852-3.655-7.52-8-8-2.78 67.964-4.113 135.964-4 204-6.667 0-13.333 0-20 0 5.728 8.588 13.062 9.92 22 4 0.679-42.032 2.679-83.364 6-124z" />
<glyph unicode="&#xe9a6;" d="M98 322c5.882-17.648 12.548-34.98 20-52 3.417-6.14 3.417-11.472 0-16-5.918 15.12-12.584 29.788-20 44-1.333 5.332-2.667 10.668-4 16-0.686 3.968 0.647 6.632 4 8z" />
<glyph unicode="&#xe9a7;" d="M198 378c6.667 0 13.333 0 20 0-0.113-68.036 1.22-136.036 4-204-5.675-3.804-12.341-5.136-20-4 0.665 26.7-0.002 53.368-2 80-3.571 4.844-6.904 4.844-10 0-4.308-8.916-6.975-18.252-8-28-5.333 0-10.667 0-16 0-3.091 12.036-8.424 22.704-16 32-3.124-4.916-5.124-10.248-6-16-1.998-21.292-2.664-42.624-2-64-6.167-3.204-12.834-4.536-20-4 7.464 69.252 8.797 138.584 4 208 6.667 0 13.333 0 20 0 19.187-143.24 36.52-143.24 52 0z" />
<glyph unicode="&#xe9a8;" d="M430 330c22.72-8.4 46.72-12.4 72-12 0-5.332 0-10.668 0-16-3.596-3.888-8.264-6.552-14-8-14.66 6.192-29.996 8.86-46 8-24.36 10.604-48.362 21.936-72 34-3.312 3.66-7.312 6.324-12 8 2.224 1.532 3.557 3.532 4 6 1.462 4.78 4.796 7.444 10 8 17.508-13.088 36.84-22.42 58-28z" />
<glyph unicode="&#xe9a9;" d="M590 334c3.804-5.676 5.136-12.34 4-20-3.616 2.836-4.948 6.836-4 12-23.68-5.268-47.68-7.932-72-8 0-4 0-8 0-12 0-2.668 0-5.332 0-8s-1.332-4-4-4c1.196 8.416-0.136 16.416-4 24-5.188-9.892-5.188-19.228 0-28 0-1.332 0-2.668 0-4-6.704 2.732-9.372 8.068-8 16 0 5.332 0 10.668 0 16-25.28-0.4-49.28 3.6-72 12 25.288-2.056 50.62-3.388 76-4 28.124-4.724 56.124-2.056 84 8z" />
<glyph unicode="&#xe9aa;" d="M594 314c2.668-1.332 5.332-2.668 8-4 3.964-6.492 1.296-10.492-8-12-25.332 2.668-50.668 5.332-76 8 0 4 0 8 0 12 24.32 0.068 48.32 2.732 72 8-0.948-5.164 0.384-9.164 4-12z" />
<glyph unicode="&#xe9ab;" d="M650 302c-11.78 3.872-23.78 4.536-36 2 2.224-1.532 3.556-3.532 4-6-11.812 1.4-21.148-2.6-28-12 0.228 4.436 1.56 8.436 4 12 9.296 1.508 11.964 5.508 8 12 9.536-0.228 18.872 1.108 28 4 8.768-1.028 15.436-5.028 20-12z" />
<glyph unicode="&#xe9ac;" d="M518 306c25.332-2.668 50.668-5.332 76-8-2.44-3.564-3.772-7.564-4-12-4.116-8.068-8.116-16.068-12-24-2.668 1.332-5.332 2.668-8 4 2.040 11.552-0.624 20.884-8 28-6.76-1.424-10.76-5.424-12-12-4 1.332-6.668 4-8 8-5.672 7.232-13.672 9.9-24 8 0 2.668 0 5.332 0 8z" />
<glyph unicode="&#xe9ad;" d="M882 362c10.908-12.508 16.24-27.176 16-44-3.144-26.852-7.144-53.52-12-80-5.832-9.728-10.5-20.396-14-32-4.044-3.348-8.712-4.68-14-4 2.716 22.816 6.716 45.484 12 68-16.8-1.24-32.8 1.428-48 8-13.968 37.708-1.968 65.040 36 82 7.892 1.98 15.892 2.648 24 2z" />
<glyph unicode="&#xe9ae;" d="M650 302c7.048-3.048 11.048-8.384 12-16-11.888 2.6-25.22 3.932-40 4 0.688 3.968-0.648 6.632-4 8-0.444 2.468-1.776 4.468-4 6 12.22 2.536 24.22 1.872 36-2z" />
<glyph unicode="&#xe9af;" d="M858 366c1.332 0 2.668 0 4 0 7.66 1.136 14.324-0.196 20-4-8.108 0.648-16.108-0.020-24-2-37.968-16.96-49.968-44.292-36-82-3.832 1.812-7.168 4.476-10 8-4.412 37.828 10.924 64.492 46 80z" />
<glyph unicode="&#xe9b0;" d="M518 298c10.328 1.9 18.328-0.768 24-8-6.272 3.892-12.94 4.56-20 2 4.948-0.928 8.948-2.928 12-6-5.836 0.268-11.168-1.064-16-4-1.368 3.352-4.032 4.688-8 4 0 1.332 0 2.668 0 4 2.668 0 4 1.332 4 4 2.668 0 4 1.332 4 4z" />
<glyph unicode="&#xe9b1;" d="M782 290c20.3-7.188 29.632-21.856 28-44 0.948-5.164-0.384-9.164-4-12 0.688 3.968-0.648 6.632-4 8 1.5 11.588-0.5 22.252-6 32-3.088-5.396-7.756-8.728-14-10 2.388-4.248 3.72-8.912 4-14 0.64-7.42-2.028-12.752-8-16 0 6.668 0 13.332 0 20-3.020 24.828-15.020 31.492-36 20 0.524 2.956-0.144 5.624-2 8-14.092-10.96-18.76-24.292-14-40-0.688-3.968 0.648-6.632 4-8 1.332-4 4-6.668 8-8 0-1.332 0-2.668 0-4-9.008 1.664-15.008 6.996-18 16-5.188 18.468-0.52 33.8 14 46 13.4 1 26.068 4.332 38 10 2.684-3.008 6.016-4.344 10-4z" />
<glyph unicode="&#xe9b2;" d="M714 290c-5.332-9.332-10.668-18.668-16-28-2.888-1.672-4.888-4.336-6-8-1.332 12-2.668 24-4 36-1.532 2.224-3.532 3.556-6 4 0 1.332 0 2.668 0 4 7.604-0.268 14.936 1.068 22 4 6.996-0.992 10.328-4.992 10-12z" />
<glyph unicode="&#xe9b3;" d="M382 286c0.228-4.436 1.561-8.436 4-12 0.524-2.956-0.143-5.624-2-8-2.667 5.332-5.333 10.668-8 16-1.998-23.964-2.665-47.964-2-72-2.307-5.092-4.974-5.092-8 0 5.276 27.452 5.276 54.788 0 82 6.263 1.2 11.596-0.8 16-6z" />
<glyph unicode="&#xe9b4;" d="M654 406c-4.388-15.812-1.72-30.48 8-44-5.068-7.244-10.4-14.576-16-22 3.792-1.932 7.792-2.596 12-2-2.668 16 4 22.668 20 20 0.032-12.18 1.364-24.18 4-36-21.988 1.124-24.656-4.212-8-16 1.332-4 4-6.668 8-8 0-1.332 0-2.668 0-4 6.132-23.192 4.8-45.856-4-68-23.292-22.888-49.96-28.224-80-16-14.432 14.22-21.096 31.552-20 52 3.884 7.932 7.884 15.932 12 24 6.852 9.4 16.188 13.4 28 12-5-9.728-11-19.064-18-28-3.156-8.848-2.488-16.848 2-24 17.484-35.576 38.148-36.912 62-4 3.24 15.432 2.572 30.096-2 44-0.952 7.616-4.952 12.952-12 16-4.564 6.972-11.232 10.972-20 12-9.128-2.892-18.464-4.228-28-4-2.668 16-5.332 32-8 48 6.668 0 13.332 0 20 0 8.852-4.42 17.52-4.42 26 0 5.236 13.468 7.236 26.8 6 40 2.668 2.668 5.332 5.332 8 8z" />
<glyph unicode="&#xe9b5;" d="M422 234c-1.332 0-2.668 0-4 0 0.664 21.376-0.004 42.708-2 64-0.692-22.064-2.692-43.396-6-64 0 21.332 0 42.668 0 64 2.836 3.616 6.836 4.948 12 4 0-22.668 0-45.332 0-68z" />
<glyph unicode="&#xe9b6;" d="M938 394c0-8 0-16 0-24-2.828-24.644-8.164-48.644-16-72-10.536-21.072-21.204-42.404-32-64-2.668 0-4 1.332-4 4 4.856 26.48 8.856 53.148 12 80 0.24 16.824-5.092 31.492-16 44 13.076-4.24 19.74-13.572 20-28-0.464-22.804-1.128-45.472-2-68 18.928 41.388 31.592 84.052 38 128z" />
<glyph unicode="&#xe9b7;" d="M442 298c19.588 0.516 32.92-8.816 40-28-7.096-2.748-13.764-6.080-20-10 10.412-8.376 18.412-18.376 24-30-3.56-5.82-3.56-11.156 0-16-1.908-3.912-4.572-7.244-8-10-10.584-1.988-21.252-2.656-32-2-4.168 5.164-8.832 5.164-14 0-0.668 5.332-1.332 10.668-2 16 0.672 28.296 4.672 54.964 12 80z" />
<glyph unicode="&#xe9b8;" d="M258 294c12.606 2.164 22.606-1.836 30-12 1.996-17.284 2.663-34.616 2-52-3.072-3.052-5.072-7.052-6-12-2.617-4.784-4.617-4.784-6 0 4.471 21.12 5.138 42.452 2 64-8 10.668-16 10.668-24 0-3.203-11.468-2.536-22.136 2-32 2.113-5.388 2.78-10.724 2-16-4.078 4.748-8.744 8.748-14 12-6.292-14.34-3.626-26.34 8-36 0-2.668-1.333-4-4-4-4.912 3.224-8.912 7.224-12 12-10.321 30.268-3.654 55.6 20 76z" />
<glyph unicode="&#xe9b9;" d="M382 286c-4.404 5.2-9.737 7.2-16 6 5.276-27.212 5.276-54.548 0-82 3.026-5.092 5.693-5.092 8 0 1.333 0 2.667 0 4 0-2.734-6.704-8.067-9.372-16-8 1.891 24.928-1.443 27.596-10 8-3.264-5.292-7.93-7.956-14-8 19.823 24.8 25.156 52.8 16 84 2.886-1.672 4.886-4.336 6-8 1.974 6.536 2.641 13.204 2 20 11.14 2.336 17.807-1.664 20-12z" />
<glyph unicode="&#xe9ba;" d="M510 286c3.968 0.688 6.632-0.648 8-4-5.268-15.12-3.936-29.784 4-44 0.26-1.752-0.404-3.088-2-4-4.076 4.748-8.744 8.748-14 12-6.292-14.34-3.624-26.34 8-36-1.368-3.352-4.032-4.688-8-4-16.996 27.68-15.664 54.344 4 80z" />
<glyph unicode="&#xe9bb;" d="M534 286c2.468-0.444 4.468-1.776 6-4 3.596-24.588 1.596-48.588-6-72-6.936-4.248-13.604-4.248-20 0 0 2.668 0 5.332 0 8 0 4 0 8 0 12 5.912-1.048 11.244 0.284 16 4-1.828 3.192-4.496 4.524-8 4-7.936 14.216-9.268 28.88-4 44 4.832 2.936 10.164 4.268 16 4z" />
<glyph unicode="&#xe9bc;" d="M682 294c2.468-0.444 4.468-1.776 6-4 1.332-12 2.668-24 4-36 1.112 3.664 3.112 6.328 6 8 0-5.332 0-10.668 0-16-7.784-2.14-11.784-7.472-12-16-1.368-3.352-4.032-4.688-8-4 8.8 22.144 10.132 44.808 4 68z" />
<glyph unicode="&#xe9bd;" d="M778 254c-3.892 5.936-9.228 7.936-16 6-2.996-6.936-4.996-14.268-6-22-3.632-7.756-9.632-11.756-18-12-4 1.332-6.668 4-8 8 1.68 14.028 5.68 27.364 12 40 20.98 11.492 32.98 4.828 36-20z" />
<glyph unicode="&#xe9be;" d="M202 170c-2.667 16-5.333 32-8 48 0.641 6.796-0.026 13.464-2 20-2.544-19.352-12.544-26.016-30-20 0 2.668 1.333 4 4 4 5.333 0 10.667 0 16 0 1.025 9.748 3.692 19.084 8 28 3.096 4.844 6.429 4.844 10 0 1.998-26.632 2.665-53.3 2-80z" />
<glyph unicode="&#xe9bf;" d="M354 286c9.156-31.2 3.823-59.2-16-84-16.73-2.616-28.064 4.048-34 20-2.774 16.216-2.108 32.216 2 48 4.27 8.96 10.937 16.296 20 22 10.684 3.332 20.017 1.332 28-6z" />
<glyph unicode="&#xe9c0;" d="M442 302c0-1.332 0-2.668 0-4-7.328-25.036-11.328-51.704-12-80 0.668-5.332 1.332-10.668 2-16 5.168 5.164 9.832 5.164 14 0-7.336-3.976-14.004-3.976-20 0-0.664 32.028 0 64.028 2 96 4.044 3.348 8.712 4.68 14 4z" />
<glyph unicode="&#xe9c1;" d="M822 278c15.2-6.572 31.2-9.24 48-8-5.284-22.516-9.284-45.184-12-68 5.288-0.68 9.956 0.652 14 4 3.5 11.604 8.168 22.272 14 32 0-2.668 1.332-4 4-4-5.148-8.548-8.484-17.88-10-28-20.576-19.252-39.908-39.92-58-62-4.108-2.052-8.108-4.052-12-6 0 2.668-1.332 4-4 4 14.52 16.524 29.852 32.524 46 48 1.536 6.788 0.872 13.452-2 20 0 1.332 0 2.668 0 4 3.96 12.972 7.96 26.304 12 40 0 4 0 8 0 12-9.428-0.652-18.76 0.012-28 2-5.768 1.508-9.768 4.84-12 10z" />
<glyph unicode="&#xe9c2;" d="M290 230c1.333 0 2.667 0 4 0-3.488-25.156-4.822-50.488-4-76 0-2.668 0-5.332 0-8-1.333 0-2.667 0-4 0 0 14.668 0 29.332 0 44 1.141 7.152-0.192 13.82-4 20-10.592-7.768-21.259-9.104-32-4 2.667 0 4 1.332 4 4 6.396-1.072 11.73 0.264 16 4 12.465 24.048 10.465 46.716-6 68-1.857-2.376-2.524-5.044-2-8-3.846-7.060-5.179-15.060-4-24-4.536 9.864-5.203 20.532-2 32 8 10.668 16 10.668 24 0 3.138-21.548 2.471-42.88-2-64 1.383-4.784 3.383-4.784 6 0 0.928 4.948 2.928 8.948 6 12z" />
<glyph unicode="&#xe9c3;" d="M542 290c1.332-4 4-6.668 8-8 1.292-24.54-1.376-48.54-8-72-2.668 0-5.332 0-8 0 7.596 23.412 9.596 47.412 6 72-1.532 2.224-3.532 3.556-6 4-3.052 3.072-7.052 5.072-12 6 7.060 2.56 13.728 1.892 20-2z" />
<glyph unicode="&#xe9c4;" d="M974 298c-38.692-117.96-112.028-207.96-220-270-22.752-13.388-46.752-23.388-72-30-3.052 3.072-7.052 5.072-12 6 12.848 10.924 18.848 24.924 18 42 8.348 5.176 17.016 9.844 26 14-2.376 1.856-5.044 2.524-8 2 38.924 19.468 73.592 44.8 104 76 3.892 1.948 7.892 3.948 12 6 18.092 22.080 37.424 42.748 58 62 1.516 10.12 4.852 19.452 10 28 10.796 21.596 21.464 42.928 32 64 4.612-3.252 4.612-7.252 0-12 12.816-2.816 25.484-5.48 38-8 5.524 8.54 9.524 17.872 12 28 1.856-2.376 2.524-5.044 2-8z" />
<glyph unicode="&#xe9c5;" d="M522 238c3.504 0.524 6.172-0.808 8-4-4.756-3.716-10.088-5.048-16-4-2.932 7.98-5.6 8.644-8 2 1.232-5.836 3.9-10.504 8-14 0-2.668 0-5.332 0-8-11.624 9.66-14.292 21.66-8 36 5.256-3.252 9.924-7.252 14-12 1.596 0.912 2.26 2.248 2 4z" />
<glyph unicode="&#xe9c6;" d="M262 274c2.469-21.332 5.136-41.332 8-60-4.27-3.736-9.604-5.072-16-4-11.626 9.66-14.292 21.66-8 36 5.256-3.252 9.922-7.252 14-12 0.78 5.276 0.113 10.612-2 16-1.179 8.94 0.154 16.94 4 24z" />
<glyph unicode="&#xe9c7;" d="M562 294c-2.040-11.552 0.624-20.884 8-28 2.668-1.332 5.332-2.668 8-4-1.096-20.448 5.568-37.78 20-52-14.768 0.78-22.104 8.78-22 24-0.872-11.704-2.872-23.040-6-34-4.54-2.996-8.54-2.332-12 2-2.616 6.46-4.616 13.128-6 20-1.508-5.768-4.84-9.768-10-12 6.624 23.46 9.292 47.46 8 72 1.24 6.576 5.24 10.576 12 12z" />
<glyph unicode="&#xe9c8;" d="M162 218c17.456-6.016 27.456 0.648 30 20 1.974-6.536 2.641-13.204 2-20-2.657-7.948-7.323-14.616-14-20-1.96-5.172-2.627-10.508-2-16-20.756 13.324-29.422 31.992-26 56 3.027-7.26 6.361-13.924 10-20z" />
<glyph unicode="&#xe9c9;" d="M330 290c4.333-0.156 8.333-1.492 12-4 9.31-21.116 9.977-42.448 2-64-5.749-16.92-15.082-19.588-28-8-5.742 10.572-6.409 21.24-2 32 3.101-7.9 8.434-11.236 16-10-10.255 18.376-10.255 36.376 0 54z" />
<glyph unicode="&#xe9ca;" d="M418 234c0-17.332 0-34.668 0-52-4 0-8 0-12 0-2.456 27.184-10.457 52.516-24 76-3.964-15.78-5.297-31.78-4-48-1.333 0-2.667 0-4 0-0.665 24.036 0.002 48.036 2 72 2.667-5.332 5.333-10.668 8-16 1.857 2.376 2.524 5.044 2 8 9.27-6.74 13.27-16.076 12-28-1.268-12.136 2.732-16.136 12-12 3.308 20.604 5.308 41.936 6 64 1.996-21.292 2.664-42.624 2-64z" />
<glyph unicode="&#xe9cb;" d="M782 350c5.332-14.668 5.332-29.332 0-44-3.62-5.856-3.62-11.192 0-16-3.984-0.344-7.316 0.992-10 4-11.932-5.668-24.6-9-38-10-14.52-12.2-19.188-27.532-14-46 2.992-9.004 8.992-14.336 18-16 8.512-4.516 17.844-5.184 28-2 7.704 1.688 11.704 6.356 12 14 5.972 3.248 8.64 8.58 8 16-0.28 5.088-1.612 9.752-4 14 6.244 1.272 10.912 4.604 14 10 5.5-9.748 7.5-20.412 6-32-7.88-25.172-25.212-38.508-52-40-10.932 1.872-21.6 4.54-32 8-6.904 6.912-12.236 14.912-16 24-2.44 3.564-3.772 7.564-4 12 0 5.332 0 10.668 0 16 5.332 9.332 10.668 18.668 16 28 9.184 1.216 10.516 5.216 4 12-7.428 19.352-4.76 36.684 8 52 19.492 6.268 38.156 4.936 56-4z" />
<glyph unicode="&#xe9cc;" d="M778 254c0-6.668 0-13.332 0-20-11.316-9.912-24.648-13.912-40-12 0 1.332 0 2.668 0 4 8.368 0.244 14.368 4.244 18 12 1.004 7.732 3.004 15.064 6 22 6.772 1.936 12.108-0.064 16-6z" />
<glyph unicode="&#xe9cd;" d="M762 310c0 4 0 8 0 12 1.912 11.112-2.088 19.112-12 24-9.024-3.684-13.024-10.352-12-20 0-5.332 0-10.668 0-16-11.776 18.044-7.776 32.708 12 44 19.776-11.292 23.776-25.956 12-44z" />
<glyph unicode="&#xe9ce;" d="M306 270c-4.108-15.784-4.774-31.784-2-48 5.936-15.952 17.27-22.616 34-20-8.293-2.552-16.293-6.552-24-12-5.333 5.332-10.667 10.668-16 16-3.19-1.828-4.524-4.496-4-8 1.26-15.484-0.074-30.152-4-44-0.822 25.512 0.512 50.844 4 76 3.278 11.22 5.278 23.22 6 36 1.53 2.224 3.53 3.556 6 4z" />
<glyph unicode="&#xe9cf;" d="M514 210c6.396-4.248 13.064-4.248 20 0 2.668 0 5.332 0 8 0-8.352-6.080-17.688-10.080-28-12-3.616-2.836-4.948-6.836-4-12-4.272-3.736-9.604-5.072-16-4 1.076 10.060 5.076 18.060 12 24 3.968-0.688 6.632 0.648 8 4z" />
<glyph unicode="&#xe9d0;" d="M698 246c0.228-4.436 1.56-8.436 4-12-3.12-12.244 2.212-20.244 16-24 0-1.332 0-2.668 0-4 1.18-8.94-0.156-16.94-4-24 0.648 8.108-0.020 16.108-2 24-1.332-2.668-2.668-5.332-4-8-7.020 11.512-14.352 22.176-22 32 0.216 8.528 4.216 13.86 12 16z" />
<glyph unicode="&#xe9d1;" d="M126 386c10.178 1.584 18.844-1.084 26-8 5.408-32.292 12.074-64.292 20-96 7.528 32.82 16.195 64.82 26 96-15.48-143.24-32.813-143.24-52 0-6.667 0-13.333 0-20 0 4.797-69.416 3.464-138.748-4-208 7.166-0.536 13.833 0.796 20 4 1.333 0 2.667 0 4 0-3.248-5.972-8.582-8.64-16-8-5.086 0.28-9.753 1.612-14 4 1.535 27.76 2.202 55.76 2 84 3.417 4.528 3.417 9.86 0 16 2.761 38.272 5.427 76.94 8 116z" />
<glyph unicode="&#xe9d2;" d="M802 242c3.352-1.368 4.688-4.032 4-8-6.584-13.24-15.92-23.908-28-32-5.164 0.948-9.164-0.384-12-4-5.332 0-10.668 0-16 0-4 0-8 0-12 0-7.136 1.572-13.8 4.236-20 8 0 1.332 0 2.668 0 4 10.4-3.46 21.068-6.128 32-8 26.788 1.492 44.12 14.828 52 40z" />
<glyph unicode="&#xe9d3;" d="M442 302c16.004 0.86 31.34-1.808 46-8 5.736 1.448 10.404 4.112 14 8-1.372-7.932 1.296-13.268 8-16-19.664-25.656-20.996-52.32-4-80-6.924-5.94-10.924-13.94-12-24-14.408-0.768-26.408-6.104-36-16-3.616-2.836-4.948-6.836-4-12-1.332 0-2.668 0-4 0 0 2.668-1.332 4-4 4 0 10.668 0 21.332 0 32-7.66 1.136-14.324-0.196-20-4-2.668-1.332-5.332-2.668-8-4 0 17.332 0 34.668 0 52 1.332 0 2.668 0 4 0-1.224-11.54 0.108-22.208 4-32 5.996-3.976 12.664-3.976 20 0 10.748-0.656 21.416 0.012 32 2 3.428 2.756 6.092 6.088 8 10-3.56 4.844-3.56 10.18 0 16-5.588 11.624-13.588 21.624-24 30 6.236 3.92 12.904 7.252 20 10-7.080 19.184-20.412 28.516-40 28 0 1.332 0 2.668 0 4z" />
<glyph unicode="&#xe9d4;" d="M598 210c2.232-5.16 6.232-8.492 12-10 25.888-5.7 48.552 0.3 68 18-4.364-11.712-12.364-20.376-24-26-27.504-3.724-54.172-1.724-80 6 0-4 0-8 0-12-4 0-8 0-12 0-17.072 1.476-33.072 5.476-48 12 10.312 1.92 19.648 5.92 28 12 5.16 2.232 8.492 6.232 10 12 1.384-6.872 3.384-13.54 6-20 3.46-4.332 7.46-4.996 12-2 3.128 10.96 5.128 22.296 6 34-0.104-15.22 7.232-23.22 22-24z" />
<glyph unicode="&#xe9d5;" d="M98 298c7.416-14.212 14.082-28.88 20-44 0.202-28.24-0.465-56.24-2-84 4.247-2.388 8.914-3.72 14-4 7.418-0.64 12.752 2.028 16 8-1.23 9.696 0.103 19.028 4 28 17.252-29.22 39.918-53.22 68-72 12.886-14.488 27.553-27.152 44-38 26.25-15.12 52.917-29.12 80-42-1.073-10.476 0.26-20.476 4-30 11.177-3.888 19.177-0.556 24 10 7.984 7.912 17.318 7.912 28 0 7.832-16.636 13.832-33.968 18-52 10.368-5.928 19.7-4.592 28 4-0.332 15.244 3 28.58 10 40 5.676-3.804 12.34-5.136 20-4-5.684-22.452 2.316-31.12 24-26 2.224 1.532 3.556 3.532 4 6 3.804 5.676 5.136 12.34 4 20 13.332 0 26.668 0 40 0 6.616-8.24 10.616-18.24 12-30 9.524-2.952 17.524-0.952 24 6 3.892 9.792 5.224 20.46 4 32 10.668 1.332 21.332 2.668 32 4 18.016-21.012 36.68-21.012 56 0 2.592 6.344 4.592 13.012 6 20 8.884 3.624 17.552 7.624 26 12 2.956 0.524 5.624-0.144 8-2-8.984-4.156-17.652-8.824-26-14 0.848-17.076-5.152-31.076-18-42 4.948-0.928 8.948-2.928 12-6-215.628-71.912-400.295-23.912-554 144-8.704 12.116-17.371 24.116-26 36-17.017 27.36-33.017 55.36-48 84-9.605 27.488-17.605 55.488-24 84-0.524 2.956 0.143 5.624 2 8 5.806-23.916 13.14-47.248 22-70 14.358-0.828 28.358-2.828 42-6-1.904 7.28-1.237 13.948 2 20z" />
<glyph unicode="&#xe9d6;" d="M230 266c-0.661-14.728 0.006-29.392 2-44 1.53-2.224 3.53-3.556 6-4 3.088-4.776 7.088-8.776 12-12 10.741-5.104 21.408-3.768 32 4 3.808-6.18 5.141-12.848 4-20-4 0-8 0-12 0 0.663-18.716-0.003-37.38-2-56-4.805 16.308-10.805 32.308-18 48-1.869 13.304-6.536 14.636-14 4-2.315-14.812-1.648-29.476 2-44 0.262-1.752-0.405-3.088-2-4-6.973 7.284-12.973 15.284-18 24-7.166 2.68-13.832 5.348-20 8 7.659-1.136 14.325 0.196 20 4 4.345 0.48 7.011 3.148 8 8-3.677 25.176-5.010 50.508-4 76-0.686 3.968 0.647 6.632 4 8z" />
<glyph unicode="&#xe9d7;" d="M586 182c17.88 3.944 36.548 5.276 56 4 0-6.668 0-13.332 0-20-1.332 0-2.668 0-4 0 0 5.332 0 10.668 0 16-17.332 0-34.668 0-52 0z" />
<glyph unicode="&#xe9d8;" d="M810 246c3.564-2.44 7.564-3.772 12-4 9.448-10.768 18.784-21.436 28-32 2.872-6.548 3.536-13.212 2-20-16.148-15.476-31.48-31.476-46-48-14.488-9.148-27.82-19.812-40-32-3.352 1.368-4.688 4.032-4 8 12.42 26.112 17.752 54.112 16 84 12.080 8.092 21.416 18.76 28 32 3.616 2.836 4.948 6.836 4 12z" />
<glyph unicode="&#xe9d9;" d="M406 182c1.1-9.032 5.1-10.368 12-4 2.856-10.108 5.52-20.108 8-30 7.060-2.56 13.728-1.892 20 2-5.208-6.112-11.876-10.112-20-12-11.892 2.336-23.892 5.004-36 8-5.764 12.896-12.43 24.896-20 36-9.603 6.248-17.603 4.916-24-4 0.944-12.436-0.39-24.436-4-36-14.058 1.516-27.392 5.516-40 12-2.668 15.252-5.335 29.916-8 44-0.524 3.504 0.81 6.172 4 8 5.333-5.332 10.667-10.668 16-16 7.707 5.448 15.707 9.448 24 12 6.070 0.044 10.736 2.708 14 8 8.557 19.596 11.891 16.928 10-8 7.933-1.372 13.266 1.296 16 8-1.297 16.22 0.036 32.22 4 48 13.543-23.484 21.544-48.816 24-76z" />
<glyph unicode="&#xe9da;" d="M510 186c17.724 1.076 35.060-0.256 52-4 6.76-1.032 14.76-1.032 24 0 17.332 0 34.668 0 52 0 0-5.332 0-10.668 0-16 0-2.668-1.332-4-4-4-16.056 0.664-32.056-0.004-48-2-3.776-10.876-5.108-22.208-4-34 0-8 0-16 0-24-3.972-35.272-5.308-71.272-4-108-6.668 0-13.332 0-20 0 0 21.332 0 42.668 0 64 0 4 0 8 0 12 5.276 28.708 5.276 58.040 0 88-9.86-4.352-16.524-11.684-20-22-5.172-1.96-10.508-2.628-16-2 2.668 10.668 5.332 21.332 8 32-9.168 1.024-17.836-0.308-26-4-3.232-14.108-2.564-27.44 2-40 2.668 0 5.332 0 8 0 8 0 16 0 24 0 0-5.332 0-10.668 0-16-11.576-5.812-23.576-9.812-36-12-3.968-31.264-5.304-63.264-4-96-5.332 0-10.668 0-16 0 1.3 31.408-0.032 62.072-4 92-4.688 4.82-10.020 4.82-16 0-3.544 3.3-4.876 7.3-4 12 0 1.332 0 2.668 0 4 6.552 2.636 13.22 5.304 20 8 3.956 14.428 5.292 29.096 4 44-7.048 0.572-13.716-0.764-20-4-3.544 3.3-4.876 7.3-4 12 9.592 9.896 21.592 15.232 36 16 6.396-1.072 11.728 0.264 16 4z" />
<glyph unicode="&#xe9db;" d="M686 230c7.648-9.824 14.98-20.488 22-32 1.332 2.668 2.668 5.332 4 8 1.98-7.892 2.648-15.892 2-24-0.748-21.38-2.080-42.712-4-64-6.892 24.552-12.892 49.884-18 76-0.12-32.612 4.544-64.612 14-96-11.408 3.632-22.74 2.3-34-4-4.12 1.344-6.12 4.012-6 8 4.5 4.608 4.5 8.608 0 12-24.988 3.72-50.32 7.72-76 12 0 5.332 0 10.668 0 16 22.268 0.080 43.6 4.748 64 14-4.764 2.792-8.764 6.124-12 10 0 6.668 0 13.332 0 20-19.452 1.276-38.12-0.056-56-4-9.24-1.032-17.24-1.032-24 0 0 1.332 0 2.668 0 4 4 0 8 0 12 0 0 4 0 8 0 12 25.828-7.724 52.496-9.724 80-6 11.636 5.624 19.636 14.288 24 26 0 2.668 0 5.332 0 8 3.968-0.688 6.632 0.648 8 4z" />
<glyph unicode="&#xe9dc;" d="M166 222c-2.667 0-4-1.332-4-4-3.639 6.076-6.973 12.74-10 20-3.422-24.008 5.244-42.676 26-56 13.073-18.428 27.74-35.764 44-52-1.333 0-2.667 0-4 0-28.082 18.78-50.748 42.78-68 72-3.897-8.972-5.23-18.304-4-28-1.333 0-2.667 0-4 0-0.664 21.376 0.002 42.708 2 64 0.876 5.752 2.876 11.084 6 16 7.576-9.296 12.909-19.964 16-32z" />
<glyph unicode="&#xe9dd;" d="M254 182c-2.47 0.444-4.47 1.776-6 4-1.514-22.936 0.486-45.604 6-68-1.333 0-2.667 0-4 0-1.5 8.792-4.167 16.792-8 24-3.648 14.524-4.315 29.188-2 44 7.464 10.636 12.131 9.304 14-4z" />
<glyph unicode="&#xe9de;" d="M750 198c5.332 0 10.668 0 16 0 4.9-2.608 7.568-7.276 8-14-3.752-22.096-7.752-44.096-12-66-4.948-5.86-8.948-12.528-12-20-4.436-0.228-8.436-1.56-12-4 9.308 31.756 13.308 63.756 12 96 0 2.668 0 5.332 0 8z" />
<glyph unicode="&#xe9df;" d="M738 198c4 0 8 0 12 0 0-2.668 0-5.332 0-8-5.044-20.008-11.044-40.008-18-60-1.996 18.62-2.664 37.284-2 56 3.604 3.16 6.272 7.16 8 12z" />
<glyph unicode="&#xe9e0;" d="M426 186c0-10.668 0-21.332 0-32 7.66-1.136 14.324 0.196 20 4 2.668 0 4-1.332 4-4s-1.332-4-4-4c-6.272-3.892-12.94-4.56-20-2-2.48 9.892-5.144 19.892-8 30-6.9-6.368-10.9-5.032-12 4 4 0 8 0 12 0 2.668 1.332 5.332 2.668 8 4z" />
<glyph unicode="&#xe9e1;" d="M194 218c2.667-16 5.333-32 8-48 6.168-2.652 12.834-5.32 20-8 5.027-8.716 11.027-16.716 18-24 1.595 0.912 2.262 2.248 2 4 3.833-7.208 6.5-15.208 8-24-25.19 19.848-49.19 41.18-72 64-0.627 5.492 0.040 10.828 2 16 6.677 5.384 11.343 12.052 14 20z" />
<glyph unicode="&#xe9e2;" d="M710 118c0.776-14.992 7.444-25.66 20-32-4.056-4.696-9.388-7.36-16-8 1.52 8.792-1.148 15.46-8 20-9.456 31.388-14.12 63.388-14 96 5.108-26.116 11.108-51.448 18-76z" />
<glyph unicode="&#xe9e3;" d="M294 198c2.665-14.084 5.332-28.748 8-44 12.608-6.484 25.942-10.484 40-12 0.658-12.072-0.008-24.072-2-36-3.57-2.324-7.57-3.66-12-4-11.402 4.696-22.735 10.028-34 16-3.897 8.972-5.23 18.304-4 28 0 2.668 0 5.332 0 8 3.926 13.848 5.26 28.516 4 44z" />
<glyph unicode="&#xe9e4;" d="M718 206c6.2-3.764 12.864-6.428 20-8-1.728-4.84-4.396-8.84-8-12-2.468 0.444-4.468 1.776-6 4-4.104-21.14-6.772-42.472-8-64-1.112-3.664-3.112-6.328-6-8 1.92 21.288 3.252 42.62 4 64 3.844 7.060 5.18 15.060 4 24z" />
<glyph unicode="&#xe9e5;" d="M286 190c0-14.668 0-29.332 0-44-0.583-16.076-1.916-32.076-4-48-12.697 2.040-22.031 8.708-28 20-5.514 22.396-7.514 45.064-6 68 1.53-2.224 3.53-3.556 6-4 7.195-15.692 13.195-31.692 18-48 1.997 18.62 2.663 37.284 2 56 4 0 8 0 12 0z" />
<glyph unicode="&#xe9e6;" d="M730 186c-0.664-18.716 0.004-37.38 2-56 6.956 19.992 12.956 39.992 18 60 1.308-32.244-2.692-64.244-12-96-2.668-2.668-5.332-5.332-8-8-12.556 6.34-19.224 17.008-20 32 2.888 1.672 4.888 4.336 6 8 1.228 21.528 3.896 42.86 8 64 1.532-2.224 3.532-3.556 6-4z" />
<glyph unicode="&#xe9e7;" d="M178 182c22.81-22.82 46.81-44.152 72-64 1.333 0 2.667 0 4 0 5.969-11.292 15.303-17.96 28-20 20.025-14.020 41.358-26.020 64-36 0-1.332 0-2.668 0-4-45.635 16.812-86.969 40.812-124 72-16.26 16.236-30.927 33.572-44 52z" />
<glyph unicode="&#xe9e8;" d="M370 182c4.842-19.004 12.842-36.336 24-52 0.814-8.74 3.481-16.74 8-24 4.536-13.596 9.868-26.928 16-40 2.344 0.836 4.344 2.172 6 4 1.996 22.628 2.664 45.296 2 68 6.668 0 13.332 0 20 0 0-14.668 0-29.332 0-44-2.892-37.712-6.892-75.712-12-114-5.136-2.736-9.804-2.068-14 2-10.020 44.724-24.020 88.060-42 130-1.333 0.668-2.667 1.332-4 2-3.728-27.92-6.394-55.92-8-84-6.167-3.204-12.834-4.536-20-4 5.054 51.256 5.054 101.92 0 152 6.397 8.916 14.397 10.248 24 4z" />
<glyph unicode="&#xe9e9;" d="M370 182c7.57-11.104 14.236-23.104 20-36 12.108-2.996 24.108-5.664 36-8 0.664-22.704-0.004-45.372-2-68-1.656-1.828-3.656-3.164-6-4-6.132 13.072-11.464 26.404-16 40 6.544-4.996 11.212-11.664 14-20 1.996 15.944 2.664 31.944 2 48-8.94 1.18-16.94-0.156-24-4-11.158 15.664-19.158 32.996-24 52z" />
<glyph unicode="&#xe9ea;" d="M994 366c5.332 0 8-2.668 8-8-36.952-169.176-134.288-289.844-292-362-81.996-35.552-167.328-48.22-256-38-9.792 3.892-20.46 5.224-32 4-1.332 0-2.668 0-4 0-1.368 3.352-4.032 4.688-8 4-134.932 28.748-241.599 99.416-320 212 4 0 8 0 12 0 8.629-11.884 17.296-23.884 26-36 153.705-167.912 338.372-215.912 554-144 25.248 6.612 49.248 16.612 72 30 107.972 62.040 181.308 152.040 220 270 10.928 20.976 17.596 43.644 20 68z" />
<glyph unicode="&#xe9eb;" d="M554 58c1.332 0 2.668 0 4 0 0-21.332 0-42.668 0-64 6.668 0 13.332 0 20 0 1.332 0 2.668 0 4 0-6.476-6.952-14.476-8.952-24-6-1.384 11.76-5.384 21.76-12 30 2.668 2.668 5.332 5.332 8 8 0 2.668 0 5.332 0 8 0 8 0 16 0 24z" />
<glyph unicode="&#xe9ec;" d="M446 94c-0.664-18.716 0.004-37.38 2-56 0.704 16.752 2.704 32.752 6 48 5.74-2.384 12.408-2.384 20 0 0-17.332 0-34.668 0-52-36.464-0.252-36.464-3.588 0-10-6.536-1.976-13.204-2.64-20-2-7-11.42-10.332-24.756-10-40-8.3-8.592-17.632-9.928-28-4-4.168 18.032-10.168 35.364-18 52-10.682 7.912-20.016 7.912-28 0-1.333 0-2.667 0-4 0 1.606 28.080 4.272 56.080 8 84 1.333-0.668 2.667-1.332 4-2 17.98-41.94 31.98-85.276 42-130 4.196-4.068 8.864-4.736 14-2 5.108 38.288 9.108 76.288 12 114z" />
<glyph unicode="&#xe9ed;" d="M614 50c2.152-6.468 3.484-13.136 4-20-10.668-1.332-21.332-2.668-32-4-5.332 1.332-5.332 2.668 0 4 10.060 1.076 18.060 5.076 24 12-0.688 3.968 0.648 6.632 4 8z" />
<glyph unicode="&#xe9ee;" d="M502 94c2.668 0 5.332 0 8 0 1.144-23.036-0.192-45.7-4-68-5.332-2.668-5.332-5.332 0-8 1.136-7.66-0.196-14.324-4-20-1.332 0-2.668 0-4 0-1.304 32.736 0.032 64.736 4 96z" />
<glyph unicode="&#xe9ef;" d="M554 58c0-8 0-16 0-24-13.056-3.296-26.392-4.632-40-4 0 8 0 16 0 24 12.688 2.504 25.356 5.172 38 8 1.596-0.912 2.26-2.248 2-4z" />
<glyph unicode="&#xe9f0;" d="M478 90c3.968-29.928 5.3-60.592 4-92 5.332 0 10.668 0 16 0 1.332 0 2.668 0 4 0-0.444-2.468-1.776-4.468-4-6-21.684-5.12-29.684 3.548-24 26-7.66-1.136-14.324 0.196-20 4 6.796-0.64 13.464 0.024 20 2-36.464 6.412-36.464 9.748 0 10 4.004 15.584 5.336 34.252 4 56z" />
<glyph unicode="&#xe9f1;" d="M614 90c5.868-11.16 15.2-17.824 28-20-9.004-2.060-17.004-6.060-24-12-3.352-1.368-4.688-4.032-4-8-3.352-1.368-4.688-4.032-4-8-8-1.332-16-2.668-24-4 0 12 0 24 0 36 14.732-3.28 24.068 2.052 28 16z" />
<glyph unicode="&#xe9f2;" d="M510 94c1.332 0 2.668 0 4 0 0-13.332 0-26.668 0-40 0-8 0-16 0-24 13.608-0.632 26.944 0.704 40 4 0-2.668 0-5.332 0-8-16 0-32 0-48 0 3.808 22.3 5.144 44.964 4 68z" />
<glyph unicode="&#xe9f3;" d="M558 70c0-4 0-8 0-12-1.332 0-2.668 0-4 0 0.26 1.752-0.404 3.088-2 4-12.644-2.828-25.312-5.496-38-8 0 13.332 0 26.668 0 40 6.796-0.64 13.464 0.024 20 2 3.008 2.684 4.344 6.016 4 10 0 5.332 0 10.668 0 16-8 0-16 0-24 0 0 1.332 0 2.668 0 4-0.364 8.792 2.3 10.124 8 4 4.404-4.392 9.736-5.060 16-2 5.824 6.98 11.156 14.312 16 22 3.988-26.536 5.32-53.2 4-80z" />
<glyph unicode="&#xe9f4;" d="M806 142c2.668 0 4-1.332 4-4-30.408-31.2-65.076-56.532-104-76-8.448-4.376-17.116-8.376-26-12-1.408-6.988-3.408-13.656-6-20 1.384 9.012-0.616 18.348-6 28-8.456 10.484-18.456 18.484-30 24 3.504-0.524 6.172 0.808 8 4-4.52 4.488-7.188 9.824-8 16 7.804-4.864 13.804-11.528 18-20 1.532 2.224 3.532 3.556 6 4-4.084-10.908-0.084-18.908 12-24 0.24-2.172 1.572-3.504 4-4 11.396 2.4 20.728 7.732 28 16 3.968-0.688 6.632 0.648 8 4 6.612 0.64 11.944 3.304 16 8 2.668 2.668 5.332 5.332 8 8 3.564 2.44 7.564 3.772 12 4 7.616 0.952 12.952 4.952 16 12 12.18 12.188 25.512 22.852 40 32z" />
<glyph unicode="&#xe9f5;" d="M706 74c-7.272-8.268-16.604-13.6-28-16-2.428 0.496-3.76 1.828-4 4 10.648 3.996 21.312 7.996 32 12z" />
<glyph unicode="&#xe9f6;" d="M458 102c-0.876-4.7 0.456-8.7 4-12 5.98 4.82 11.312 4.82 16 0 1.336-21.748 0.004-40.416-4-56 0 17.332 0 34.668 0 52-7.592-2.384-14.26-2.384-20 0-1.072 6.396 0.264 11.728 4 16z" />
<glyph unicode="&#xe9f7;" d="M662 102c1.332 0 2.668 0 4 0-0.12-3.988 1.88-6.656 6-8 11.26 6.3 22.592 7.632 34 4 6.852-4.54 9.52-11.208 8-20-1.368-3.352-4.032-4.688-8-4-10.688-4.004-21.352-8.004-32-12-12.084 5.092-16.084 13.092-12 24 0 5.332 0 10.668 0 16z" />
<glyph unicode="&#xe9f8;" d="M286 146c1.333 0 2.667 0 4 0-1.23-9.696 0.103-19.028 4-28 11.265-5.972 22.598-11.304 34-16 4.43 0.34 8.43 1.676 12 4 1.992 11.928 2.658 23.928 2 36 3.963-25.916 5.296-52.584 4-80-22.642 9.98-43.975 21.98-64 36 2.084 15.924 3.417 31.924 4 48z" />
<glyph unicode="&#xe9f9;" d="M218 130c1.333 0 2.667 0 4 0 37.031-31.188 78.365-55.188 124-72 0.686-3.968-0.647-6.632-4-8-27.083 12.88-53.75 26.88-80 42-16.447 10.848-31.114 23.512-44 38z" />
<glyph unicode="&#xe9fa;" d="M538 106c0.344-3.984-0.992-7.316-4-10-6.536-1.976-13.204-2.64-20-2-1.332 0-2.668 0-4 0-2.668 0-5.332 0-8 0 12.424 2.188 24.424 6.188 36 12z" />
<glyph unicode="&#xe9fb;" d="M654 106c5.7 6.124 8.364 4.792 8-4 0-5.332 0-10.668 0-16-2.468-0.444-4.468-1.776-6-4-4.196 8.472-10.196 15.136-18 20-4.272 3.736-9.604 5.072-16 4-0.5-12.432 4.832-20.432 16-24 11.544-5.516 21.544-13.516 30-24 5.384-9.652 7.384-18.988 6-28-19.32-21.012-37.984-21.012-56 0-0.516 6.864-1.848 13.532-4 20-0.688 3.968 0.648 6.632 4 8 2.956 0.524 5.624-0.144 8-2-6.516-24.164 2.82-34.832 28-32 18.108 20.736 14.108 36.072-12 46-12.8 2.176-22.132 8.84-28 20-1.28 20.3 8.056 27.632 28 22 2.188-3.7 4.852-7.032 8-10 2.428 0.496 3.76 1.828 4 4z" />
<glyph unicode="&#xe9fc;" d="M650 42c8.196-0.824 9.532-4.156 4-10-7.036-3.192-13.704-2.524-20 2 5.796 2.688 11.128 5.356 16 8z" />
<glyph unicode="&#xe9fd;" d="M650 58c3.156-1.132 5.824-3.132 8-6-9.82-5.508-19.152-7.508-28-6 8.176 2.26 14.84 6.26 20 12z" />
<glyph unicode="&#xe9fe;" d="M638 102c0.812-6.176 3.48-11.512 8-16-1.828-3.192-4.496-4.524-8-4-11.168 3.568-16.5 11.568-16 24 6.396 1.072 11.728-0.264 16-4z" />
<glyph unicode="&#xe9ff;" d="M666 114c4.5-3.392 4.5-7.392 0-12-1.332 0-2.668 0-4 0 0.364 8.792-2.3 10.124-8 4 1.284 6.192 5.284 8.86 12 8z" />
<glyph unicode="&#xea00;" d="M762 118c-0.688-3.968 0.648-6.632 4-8-3.048-7.048-8.384-11.048-16-12 3.052 7.472 7.052 14.14 12 20z" />
<glyph unicode="&#xea01;" d="M446 138c10.216-3.552 20.884-4.884 32-4 0-5.332 0-10.668 0-16-10.136 0.964-16.8-3.036-20-12 0-1.332 0-2.668 0-4-3.736-4.272-5.072-9.604-4-16-3.296-15.248-5.296-31.248-6-48-1.996 18.62-2.664 37.284-2 56 0 14.668 0 29.332 0 44z" />
<glyph unicode="&#xea02;" d="M346 178c5.054-50.080 5.054-100.744 0-152 7.166-0.536 13.833 0.796 20 4 1.333 0 2.667 0 4 0-4.823-10.556-12.823-13.888-24-10-3.74 9.524-5.073 19.524-4 30 3.353 1.368 4.686 4.032 4 8 0 1.332 0 2.668 0 4 1.296 27.416-0.037 54.084-4 80 3.61 11.564 4.944 23.564 4 36z" />
<glyph unicode="&#xea03;" d="M590 154c0-4 0-8 0-12 0-5.332 0-10.668 0-16 25.68-4.28 51.012-8.28 76-12-6.716 0.86-10.716-1.808-12-8-0.24-2.172-1.572-3.504-4-4-3.148 2.968-5.812 6.3-8 10-19.944 5.632-29.28-1.7-28-22-3.932-13.948-13.268-19.28-28-16 0-12 0-24 0-36-3.952 20.56-5.284 41.896-4 64 0 8 0 16 0 24 2.668 9.332 5.332 18.668 8 28z" />
<glyph unicode="&#xea04;" d="M458 166c-0.876-4.7 0.456-8.7 4-12 6.284 3.236 12.952 4.572 20 4 1.292-14.904-0.044-29.572-4-44-6.78-2.696-13.448-5.364-20-8 3.2 8.964 9.864 12.964 20 12 0 5.332 0 10.668 0 16 0.64 6.796-0.024 13.464-2 20-5.764-3.040-11.764-5.704-18-8-3.192 1.828-4.524 4.496-4 8-0.948 5.164 0.384 9.164 4 12z" />
<glyph unicode="&#xea05;" d="M634 162c-14.668-2.668-29.332-5.332-44-8-2.668-9.332-5.332-18.668-8-28-1.108 11.792 0.224 23.124 4 34 15.944 1.996 31.944 2.664 48 2z" />
<glyph unicode="&#xea06;" d="M402 106c-4.519 7.26-7.186 15.26-8 24 7.060 3.844 15.060 5.18 24 4 0.664-16.056-0.004-32.056-2-48-2.788 8.336-7.456 15.004-14 20z" />
<glyph unicode="&#xea07;" d="M514 126c0-1.332 0-2.668 0-4-2.668 0-5.332 0-8 0-0.652 9.428 0.012 18.76 2 28 0.764-8.832 2.764-16.832 6-24z" />
<glyph unicode="&#xea08;" d="M450 154c1.332 0 2.668 0 4 0-0.524-3.504 0.808-6.172 4-8 6.236 2.296 12.236 4.96 18 8 1.976-6.536 2.64-13.204 2-20-11.116-0.884-21.784 0.448-32 4-6.668 0-13.332 0-20 0 8.124 1.888 14.792 5.888 20 12 2.668 0 4 1.332 4 4z" />
<glyph unicode="&#xea09;" d="M522 134c0-1.332 0-2.668 0-4-5.7 6.124-8.364 4.792-8-4-3.236 7.168-5.236 15.168-6 24-1.988-9.24-2.652-18.572-2-28-4.564 12.56-5.232 25.892-2 40 8.164 3.692 16.832 5.024 26 4-2.668-10.668-5.332-21.332-8-32z" />
<glyph unicode="&#xea0a;" d="M558 70c1.32 26.8-0.012 53.464-4 80-4.844-7.688-10.176-15.020-16-22-6.264-3.060-11.596-2.392-16 2 0 1.332 0 2.668 0 4 5.492-0.628 10.828 0.040 16 2 3.476 10.316 10.14 17.648 20 22 5.276-29.96 5.276-59.292 0-88z" />
<glyph unicode="&#xea0b;" d="M638 166c1.332 0 2.668 0 4 0 3.236-3.876 7.236-7.208 12-10-20.4-9.252-41.732-13.92-64-14 0 4 0 8 0 12 14.668 2.668 29.332 5.332 44 8 2.668 0 4 1.332 4 4z" />
<glyph unicode="&#xea0c;" d="M582 102c-1.284-22.104 0.048-43.44 4-64 0-2.668 0-5.332 0-8-5.332-1.332-5.332-2.668 0-4 1.224-11.54-0.108-22.208-4-32-1.332 0-2.668 0-4 0-1.308 36.728 0.028 72.728 4 108z" />
<glyph unicode="&#xea0d;" d="M410-34c3.968 0.688 6.632-0.648 8-4-2.732-4.576-1.396-4.576 4 0 11.54 1.224 22.208-0.108 32-4-6.468-4.448-15.8-7.116-28-8-9.764 0.144-17.764 3.476-24 10 3.664 1.112 6.328 3.112 8 6z" />
<glyph unicode="&#xea0e;" glyph-name="xrp" horiz-adv-x="1237" d="M1055.396 960h178.717l-371.925-368.254c-134.69-133.289-353.063-133.289-487.849 0l-372.069 368.254h178.862l282.566-279.74c39.703-39.147 94.257-63.322 154.457-63.322s114.754 24.175 154.483 63.347l-0.025-0.025zM178.838-64h-178.838l374.34 370.524c134.69 133.289 353.063 133.289 487.849 0l374.34-370.524h-178.717l-284.981 282.011c-39.703 39.147-94.257 63.322-154.457 63.322s-114.754-24.175-154.483-63.347l0.025 0.025z" />
<glyph unicode="&#xea0f;" glyph-name="home" d="M1024 369.556l-512 397.426-512-397.428v162.038l512 397.426 512-397.428zM896 384v-384h-256v256h-256v-256h-256v384l384 288z" />
<glyph unicode="&#xea10;" glyph-name="home2" d="M512 928l-512-512 96-96 96 96v-416h256v192h128v-192h256v416l96-96 96 96-512 512zM512 512c-35.346 0-64 28.654-64 64s28.654 64 64 64c35.346 0 64-28.654 64-64s-28.654-64-64-64z" />
<glyph unicode="&#xea11;" glyph-name="home3" d="M1024 352l-192 192v288h-128v-160l-192 192-512-512v-32h128v-320h320v192h128v-192h320v320h128z" />
<glyph unicode="&#xea12;" glyph-name="office" d="M0-64h512v1024h-512v-1024zM320 832h128v-128h-128v128zM320 576h128v-128h-128v128zM320 320h128v-128h-128v128zM64 832h128v-128h-128v128zM64 576h128v-128h-128v128zM64 320h128v-128h-128v128zM576 640h448v-64h-448zM576-64h128v256h192v-256h128v576h-448z" />
<glyph unicode="&#xea13;" glyph-name="newspaper" d="M896 704v128h-896v-704c0-35.346 28.654-64 64-64h864c53.022 0 96 42.978 96 96v544h-128zM832 128h-768v640h768v-640zM128 640h640v-64h-640zM512 512h256v-64h-256zM512 384h256v-64h-256zM512 256h192v-64h-192zM128 512h320v-320h-320z" />
<glyph unicode="&#xea14;" glyph-name="pencil" d="M864 960c88.364 0 160-71.634 160-160 0-36.020-11.91-69.258-32-96l-64-64-224 224 64 64c26.742 20.090 59.978 32 96 32zM64 224l-64-288 288 64 592 592-224 224-592-592zM715.578 596.422l-448-448-55.156 55.156 448 448 55.156-55.156z" />
</font>
</defs>
</svg>
